<svg id="Layer_1" data-name="Layer 1" xmlns="http://www.w3.org/2000/svg" xmlns:xlink="http://www.w3.org/1999/xlink" viewBox="0 0 1786.27 1013"><defs><style>.cls-1,.cls-3,.cls-4{fill:none;}.cls-2{clip-path:url(#clip-path);}.cls-3{stroke:#b8b8b8;}.cls-4{stroke:#000;stroke-linecap:square;}.cls-5{clip-path:url(#clip-path-2);}.cls-6{clip-path:url(#clip-path-3);}.cls-7{clip-path:url(#clip-path-4);}.cls-8{clip-path:url(#clip-path-5);}.cls-9{clip-path:url(#clip-path-6);}.cls-10{clip-path:url(#clip-path-7);}.cls-11{fill:#991004;}.cls-12{fill:#a5a5a5;}.cls-13{fill:#65758e;}.cls-14{fill:#6d7472;}.cls-15{isolation:isolate;}.cls-16{clip-path:url(#clip-path-11);}.cls-17{clip-path:url(#clip-path-12);}.cls-18{fill:#fff;}.cls-19{clip-path:url(#clip-path-13);}.cls-20{clip-path:url(#clip-path-14);}.cls-21{clip-path:url(#clip-path-15);}.cls-22{clip-path:url(#clip-path-16);}.cls-23{clip-path:url(#clip-path-17);}.cls-24{clip-path:url(#clip-path-18);}</style><clipPath id="clip-path"><rect class="cls-1" x="137.3" y="112.46" width="1534.3" height="86"/></clipPath><clipPath id="clip-path-2"><rect class="cls-1" x="129.14" y="861.19" width="18.33" height="42"/></clipPath><clipPath id="clip-path-3"><rect class="cls-1" x="504.55" y="861.19" width="33.66" height="42"/></clipPath><clipPath id="clip-path-4"><rect class="cls-1" x="887.62" y="861.19" width="33.66" height="42"/></clipPath><clipPath id="clip-path-5"><rect class="cls-1" x="1270.7" y="861.19" width="33.66" height="42"/></clipPath><clipPath id="clip-path-6"><rect class="cls-1" x="1653.77" y="861.19" width="33.66" height="42"/></clipPath><clipPath id="clip-path-7"><rect class="cls-1" x="138.3" y="237.46" width="1532.3" height="606.62"/></clipPath><clipPath id="clip-path-11"><rect class="cls-1" x="314.27" y="719" width="172" height="67"/></clipPath><clipPath id="clip-path-12"><rect class="cls-1" x="341.27" y="719" width="110" height="69"/></clipPath><clipPath id="clip-path-13"><rect class="cls-1" x="1321.27" y="581" width="166" height="65"/></clipPath><clipPath id="clip-path-14"><rect class="cls-1" x="1330.27" y="580" width="120" height="64"/></clipPath><clipPath id="clip-path-15"><rect class="cls-1" x="751.27" y="440" width="166" height="65"/></clipPath><clipPath id="clip-path-16"><rect class="cls-1" x="760.27" y="438" width="120" height="64"/></clipPath><clipPath id="clip-path-17"><rect class="cls-1" x="540.27" y="298" width="166" height="65"/></clipPath><clipPath id="clip-path-18"><rect class="cls-1" x="549.27" y="297" width="120" height="64"/></clipPath></defs><title>Artboard 1</title><g class="cls-2"><path d="M487.27,139.74H473.94V135h32.23v4.69H492.84V179h-5.56Z"/><path d="M510.19,188.28a5.27,5.27,0,0,0,1.27.17,5.89,5.89,0,0,0,4.59-2,14,14,0,0,0,2.78-5l.74-2.41L506.5,146.44h5.69l6.63,18q.74,2.14,1.57,4.52t1.57,4.66h.27q.74-2.21,1.41-4.62t1.34-4.56l5.83-18h5.36l-12.26,35.24a37.79,37.79,0,0,1-1.94,4.49,14.83,14.83,0,0,1-2.55,3.58,11.34,11.34,0,0,1-3.35,2.38,10.25,10.25,0,0,1-4.35.87,12,12,0,0,1-2.08-.17,8.39,8.39,0,0,1-1.74-.5L509,188Z"/><path d="M548,181.75v11h-5.49v-46.3H547l.47,3.75h.2a24.82,24.82,0,0,1,4.86-3.22,12.09,12.09,0,0,1,5.53-1.34,12.58,12.58,0,0,1,5.56,1.17,10.81,10.81,0,0,1,4,3.35,15.74,15.74,0,0,1,2.45,5.23,26,26,0,0,1,.84,6.87,22.32,22.32,0,0,1-1.14,7.4,17.17,17.17,0,0,1-3.08,5.53,13,13,0,0,1-4.49,3.45,12.69,12.69,0,0,1-5.36,1.17,11,11,0,0,1-4.52-1,22.82,22.82,0,0,1-4.52-2.75Zm0-10a14.6,14.6,0,0,0,4.29,2.65,10.75,10.75,0,0,0,3.69.77,7.82,7.82,0,0,0,3.72-.9,8.88,8.88,0,0,0,2.95-2.55,12.43,12.43,0,0,0,1.94-4.05,19.36,19.36,0,0,0,.7-5.43,23.66,23.66,0,0,0-.47-4.89,10.94,10.94,0,0,0-1.51-3.79,7.24,7.24,0,0,0-2.68-2.45,8.27,8.27,0,0,0-3.92-.87,8.75,8.75,0,0,0-4.19,1.14,24.54,24.54,0,0,0-4.52,3.28Z"/><path d="M582.48,139.74a3.89,3.89,0,0,1-2.71-1,3.52,3.52,0,0,1,0-5.13,4.27,4.27,0,0,1,5.43,0,3.52,3.52,0,0,1,0,5.13A3.89,3.89,0,0,1,582.48,139.74Zm-2.81,6.7h5.49V179h-5.49Z"/><path d="M593.74,162.79a19.45,19.45,0,0,1,1.27-7.27,16.36,16.36,0,0,1,3.42-5.39,14.25,14.25,0,0,1,5-3.35,16,16,0,0,1,6-1.14,12.1,12.1,0,0,1,5.53,1.17,17.65,17.65,0,0,1,4,2.71l-2.75,3.55a15.4,15.4,0,0,0-3-2.08,7.62,7.62,0,0,0-3.52-.8,9.28,9.28,0,0,0-4.09.9,9.18,9.18,0,0,0-3.22,2.58,12.77,12.77,0,0,0-2.11,4,16.14,16.14,0,0,0-.77,5.13,16.46,16.46,0,0,0,.74,5.09,12.29,12.29,0,0,0,2,3.92,9,9,0,0,0,3.18,2.55,9.74,9.74,0,0,0,8.34-.07,15.25,15.25,0,0,0,3.38-2.31l2.48,3.62a17.88,17.88,0,0,1-4.92,3.08A14.5,14.5,0,0,1,609,179.8a15.93,15.93,0,0,1-6-1.14,13.53,13.53,0,0,1-4.86-3.32,15.57,15.57,0,0,1-3.22-5.36A20.73,20.73,0,0,1,593.74,162.79Z"/><path d="M624.49,170.56a9,9,0,0,1,4.79-8.21q4.79-2.85,15.24-4a15,15,0,0,0-.3-3,7.2,7.2,0,0,0-1.07-2.61,5.82,5.82,0,0,0-2-1.84,6.75,6.75,0,0,0-3.28-.7,13.13,13.13,0,0,0-5.33,1.07,26.34,26.34,0,0,0-4.39,2.41l-2.21-3.82a35.56,35.56,0,0,1,5.56-2.85,18.57,18.57,0,0,1,7.24-1.37q6,0,8.64,3.65T650,159v20h-4.56l-.47-3.89h-.13a27,27,0,0,1-5.06,3.32,12.52,12.52,0,0,1-5.73,1.37,10,10,0,0,1-6.87-2.41A8.66,8.66,0,0,1,624.49,170.56Zm5.43-.4a4.65,4.65,0,0,0,1.64,4,6.65,6.65,0,0,0,4.05,1.21,9.47,9.47,0,0,0,4.46-1.11,21.67,21.67,0,0,0,4.46-3.25v-9a57.1,57.1,0,0,0-6.9,1.27A18.08,18.08,0,0,0,633.1,165a6.46,6.46,0,0,0-2.45,2.31A5.69,5.69,0,0,0,629.92,170.16Z"/><path d="M660.4,131.3h5.49v41.54a2.87,2.87,0,0,0,.47,1.88,1.39,1.39,0,0,0,1.07.54h.5a2.82,2.82,0,0,0,.7-.13l.74,4.15a4.78,4.78,0,0,1-1.27.4,10.86,10.86,0,0,1-1.88.13q-3.15,0-4.49-1.88a9.4,9.4,0,0,1-1.34-5.49Z"/><path d="M691,146.44h4.56l.47,4.69h.2a22.51,22.51,0,0,1,4.66-3.92,10.09,10.09,0,0,1,5.46-1.58,9.34,9.34,0,0,1,5.86,1.64,9.53,9.53,0,0,1,3.12,4.59,27.47,27.47,0,0,1,5.13-4.52,9.93,9.93,0,0,1,5.59-1.71q5,0,7.47,3.22t2.45,9.51V179h-5.49V159.1q0-4.62-1.47-6.67a5.24,5.24,0,0,0-4.56-2q-3.68,0-8.17,5V179h-5.49V159.1q0-4.62-1.47-6.67a5.32,5.32,0,0,0-4.62-2q-3.69,0-8.17,5V179H691Z"/><path d="M744.15,162.79a19.71,19.71,0,0,1,1.24-7.2,16.85,16.85,0,0,1,3.28-5.39,14.24,14.24,0,0,1,4.66-3.38,13.12,13.12,0,0,1,5.43-1.17,13.65,13.65,0,0,1,5.53,1.07,10.79,10.79,0,0,1,4.09,3.08,14.16,14.16,0,0,1,2.51,4.82,21.27,21.27,0,0,1,.87,6.3,18.78,18.78,0,0,1-.2,3h-22a12.94,12.94,0,0,0,3.25,8.38,10,10,0,0,0,7.6,3.08,12.81,12.81,0,0,0,4.32-.7,19.11,19.11,0,0,0,3.79-1.84l1.94,3.62a27.74,27.74,0,0,1-4.76,2.34,16.53,16.53,0,0,1-6,1,16,16,0,0,1-6.13-1.17,14.52,14.52,0,0,1-5-3.35,15.5,15.5,0,0,1-3.32-5.33A19.93,19.93,0,0,1,744.15,162.79Zm22.78-2.48q0-5-2.11-7.67a7.15,7.15,0,0,0-5.93-2.65,8,8,0,0,0-3.32.7,9.17,9.17,0,0,0-2.85,2,10.71,10.71,0,0,0-2.11,3.22,14.83,14.83,0,0,0-1.11,4.39Z"/><path d="M777.45,162.79a20.53,20.53,0,0,1,1.17-7.14,16.94,16.94,0,0,1,3.12-5.39,13.8,13.8,0,0,1,4.49-3.42,12.38,12.38,0,0,1,5.36-1.21,11.12,11.12,0,0,1,4.89,1,21.89,21.89,0,0,1,4.22,2.75l-.27-5.56V131.3H806V179h-4.56l-.47-3.82h-.2a20.57,20.57,0,0,1-4.46,3.25,11.08,11.08,0,0,1-5.39,1.37,12.07,12.07,0,0,1-9.82-4.42Q777.45,171,777.45,162.79Zm5.7-.07q0,5.9,2.34,9.18a7.67,7.67,0,0,0,6.63,3.28,8.76,8.76,0,0,0,4.29-1.11,15.4,15.4,0,0,0,4-3.38v-17a13.88,13.88,0,0,0-4-2.65,10.4,10.4,0,0,0-3.92-.77,7.69,7.69,0,0,0-3.65.9,9.23,9.23,0,0,0-3,2.55,12.74,12.74,0,0,0-2,3.92A16.47,16.47,0,0,0,783.14,162.72Z"/><path d="M819.79,139.74a3.89,3.89,0,0,1-2.71-1,3.52,3.52,0,0,1,0-5.13,4.27,4.27,0,0,1,5.43,0,3.52,3.52,0,0,1,0,5.13A3.89,3.89,0,0,1,819.79,139.74Zm-2.81,6.7h5.49V179H817Z"/><path d="M833,146.44h5.56v19.9q0,4.62,1.44,6.67a5.3,5.3,0,0,0,4.66,2,7.86,7.86,0,0,0,4.49-1.31,21.09,21.09,0,0,0,4.29-4.19V146.44h5.49V179h-4.56l-.47-5.09h-.2a21.73,21.73,0,0,1-4.79,4.29A10.77,10.77,0,0,1,843,179.8q-5.23,0-7.6-3.22T833,167.07Z"/><path d="M869.9,146.44h4.56l.47,4.69h.2a22.57,22.57,0,0,1,4.66-3.92,10.09,10.09,0,0,1,5.46-1.58,9.35,9.35,0,0,1,5.86,1.64,9.53,9.53,0,0,1,3.12,4.59,27.47,27.47,0,0,1,5.13-4.52,9.93,9.93,0,0,1,5.59-1.71q5,0,7.47,3.22t2.45,9.51V179h-5.49V159.1q0-4.62-1.47-6.67a5.24,5.24,0,0,0-4.56-2q-3.69,0-8.17,5V179h-5.49V159.1q0-4.62-1.47-6.67a5.32,5.32,0,0,0-4.62-2q-3.69,0-8.17,5V179H869.9Z"/><path d="M922.7,160.11h15.41v4.22H922.7Z"/><path d="M945.41,171.63a21.94,21.94,0,0,0,4.39,2.81,11.91,11.91,0,0,0,5.19,1.07,6.92,6.92,0,0,0,4.82-1.47,4.71,4.71,0,0,0,1.61-3.62,3.71,3.71,0,0,0-.67-2.21,6.66,6.66,0,0,0-1.71-1.64,12.58,12.58,0,0,0-2.38-1.24L954,164.26q-1.74-.6-3.48-1.37a13.91,13.91,0,0,1-3.12-1.88,9.47,9.47,0,0,1-2.25-2.58,6.86,6.86,0,0,1-.87-3.55,8.78,8.78,0,0,1,.77-3.65,8.4,8.4,0,0,1,2.21-2.95,10.46,10.46,0,0,1,3.52-1.94,15.7,15.7,0,0,1,10.35.37,17.64,17.64,0,0,1,4.46,2.61L963,152.8a17.55,17.55,0,0,0-3.48-2.08,9.63,9.63,0,0,0-4-.8,6.26,6.26,0,0,0-4.52,1.41,4.45,4.45,0,0,0-1.44,3.28,3.14,3.14,0,0,0,.6,1.94,6.45,6.45,0,0,0,1.61,1.47,11.82,11.82,0,0,0,2.31,1.17l2.71,1q1.74.67,3.52,1.41a13.52,13.52,0,0,1,3.18,1.84,9.06,9.06,0,0,1,2.31,2.71,7.81,7.81,0,0,1,.9,3.89,9.2,9.2,0,0,1-.77,3.75,8.92,8.92,0,0,1-2.28,3.08,10.85,10.85,0,0,1-3.75,2.11,15.75,15.75,0,0,1-5.12.77,17.55,17.55,0,0,1-6.63-1.27,20.66,20.66,0,0,1-5.49-3.22Z"/><path d="M977.17,139.74a3.89,3.89,0,0,1-2.71-1,3.52,3.52,0,0,1,0-5.13,4.28,4.28,0,0,1,5.43,0,3.52,3.52,0,0,1,0,5.13A3.89,3.89,0,0,1,977.17,139.74Zm-2.81,6.7h5.49V179h-5.49Z"/><path d="M987.42,176.05l17.15-25.12H989.3v-4.49h22.24v2.95l-17.15,25.13h17.69V179H987.42Z"/><path d="M1016.3,162.79a19.7,19.7,0,0,1,1.24-7.2,16.86,16.86,0,0,1,3.28-5.39,14.24,14.24,0,0,1,4.66-3.38,13.12,13.12,0,0,1,5.43-1.17,13.65,13.65,0,0,1,5.53,1.07,10.79,10.79,0,0,1,4.09,3.08,14.14,14.14,0,0,1,2.51,4.82,21.27,21.27,0,0,1,.87,6.3,18.72,18.72,0,0,1-.2,3h-22a13,13,0,0,0,3.25,8.38,10,10,0,0,0,7.61,3.08,12.81,12.81,0,0,0,4.32-.7,19.13,19.13,0,0,0,3.79-1.84l1.94,3.62a27.76,27.76,0,0,1-4.76,2.34,16.53,16.53,0,0,1-6,1,16,16,0,0,1-6.13-1.17,14.52,14.52,0,0,1-5-3.35,15.5,15.5,0,0,1-3.32-5.33A19.94,19.94,0,0,1,1016.3,162.79Zm22.78-2.48q0-5-2.11-7.67A7.15,7.15,0,0,0,1031,150a8,8,0,0,0-3.32.7,9.16,9.16,0,0,0-2.85,2,10.71,10.71,0,0,0-2.11,3.22,14.86,14.86,0,0,0-1.11,4.39Z"/><path d="M1049.6,162.79a20.54,20.54,0,0,1,1.17-7.14,17,17,0,0,1,3.12-5.39,13.79,13.79,0,0,1,4.49-3.42,12.38,12.38,0,0,1,5.36-1.21,11.12,11.12,0,0,1,4.89,1,21.86,21.86,0,0,1,4.22,2.75l-.27-5.56V131.3h5.56V179h-4.56l-.47-3.82h-.2a20.56,20.56,0,0,1-4.46,3.25,11.07,11.07,0,0,1-5.39,1.37,12.07,12.07,0,0,1-9.82-4.42Q1049.59,171,1049.6,162.79Zm5.7-.07q0,5.9,2.34,9.18a7.67,7.67,0,0,0,6.63,3.28,8.76,8.76,0,0,0,4.29-1.11,15.41,15.41,0,0,0,4-3.38v-17a13.87,13.87,0,0,0-4-2.65,10.41,10.41,0,0,0-3.92-.77,7.69,7.69,0,0,0-3.65.9,9.22,9.22,0,0,0-3,2.55,12.73,12.73,0,0,0-2,3.92A16.47,16.47,0,0,0,1055.29,162.72Z"/><path d="M1098.77,146.44h5.63l4.82,18.83q.53,2.35,1,4.56t.94,4.49h.27q.53-2.28,1.07-4.52t1.14-4.52l5-18.83H1124l5.09,18.83,1.17,4.56q.57,2.21,1.11,4.49h.27q.53-2.28,1-4.49t1-4.56l4.76-18.83h5.23L1135,179h-6.7l-4.69-17.49q-.6-2.34-1.11-4.62t-1.11-4.76h-.27q-.54,2.48-1.07,4.79t-1.21,4.66L1114.25,179h-6.43Z"/><path d="M1148.15,162.79a19.7,19.7,0,0,1,1.24-7.2,16.86,16.86,0,0,1,3.28-5.39,14.24,14.24,0,0,1,4.66-3.38,13.12,13.12,0,0,1,5.43-1.17,13.65,13.65,0,0,1,5.53,1.07,10.79,10.79,0,0,1,4.09,3.08,14.14,14.14,0,0,1,2.51,4.82,21.27,21.27,0,0,1,.87,6.3,18.72,18.72,0,0,1-.2,3h-22a13,13,0,0,0,3.25,8.38,10,10,0,0,0,7.61,3.08,12.81,12.81,0,0,0,4.32-.7,19.13,19.13,0,0,0,3.79-1.84l1.94,3.62a27.76,27.76,0,0,1-4.76,2.34,16.53,16.53,0,0,1-6,1,16,16,0,0,1-6.13-1.17,14.52,14.52,0,0,1-5-3.35,15.5,15.5,0,0,1-3.32-5.33A19.94,19.94,0,0,1,1148.15,162.79Zm22.78-2.48q0-5-2.11-7.67a7.15,7.15,0,0,0-5.93-2.65,8,8,0,0,0-3.32.7,9.16,9.16,0,0,0-2.85,2,10.71,10.71,0,0,0-2.11,3.22,14.86,14.86,0,0,0-1.11,4.39Z"/><path d="M1183.79,131.3h5.49v13l-.13,5.9a22.55,22.55,0,0,1,4.82-3.25,11.85,11.85,0,0,1,5.36-1.31,12.57,12.57,0,0,1,5.56,1.17,11.09,11.09,0,0,1,4.05,3.35,15.35,15.35,0,0,1,2.48,5.23,25.69,25.69,0,0,1,.84,6.8,22.6,22.6,0,0,1-1.14,7.44,17.11,17.11,0,0,1-3.08,5.56,13,13,0,0,1-4.49,3.45,12.69,12.69,0,0,1-5.36,1.17,12.08,12.08,0,0,1-4.72-1,16.33,16.33,0,0,1-4.59-3h-.2l-.47,3.22h-4.42Zm5.49,40.47a13.67,13.67,0,0,0,4.25,2.65,11,11,0,0,0,3.72.77,7.82,7.82,0,0,0,3.72-.9,8.88,8.88,0,0,0,2.95-2.55,12.43,12.43,0,0,0,1.94-4.05,19.34,19.34,0,0,0,.7-5.43,23.69,23.69,0,0,0-.47-4.89,10.94,10.94,0,0,0-1.51-3.79,7.24,7.24,0,0,0-2.68-2.45,8.27,8.27,0,0,0-3.92-.87q-4,0-8.71,4.42Z"/><path d="M1232.9,170.56a9,9,0,0,1,4.79-8.21q4.79-2.85,15.24-4a15,15,0,0,0-.3-3,7.19,7.19,0,0,0-1.07-2.61,5.82,5.82,0,0,0-2-1.84,6.76,6.76,0,0,0-3.28-.7,13.13,13.13,0,0,0-5.33,1.07,26.36,26.36,0,0,0-4.39,2.41l-2.21-3.82a35.55,35.55,0,0,1,5.56-2.85,18.58,18.58,0,0,1,7.24-1.37q6,0,8.64,3.65t2.68,9.75v20h-4.56l-.47-3.89h-.13a27,27,0,0,1-5.06,3.32,12.52,12.52,0,0,1-5.73,1.37,10,10,0,0,1-6.87-2.41A8.66,8.66,0,0,1,1232.9,170.56Zm5.43-.4a4.65,4.65,0,0,0,1.64,4,6.65,6.65,0,0,0,4.05,1.21,9.47,9.47,0,0,0,4.46-1.11,21.64,21.64,0,0,0,4.46-3.25v-9a57.13,57.13,0,0,0-6.9,1.27,18.09,18.09,0,0,0-4.52,1.74,6.46,6.46,0,0,0-2.45,2.31A5.7,5.7,0,0,0,1238.33,170.16Z"/><path d="M1274.31,181.75v11h-5.49v-46.3h4.56l.47,3.75h.2a24.87,24.87,0,0,1,4.86-3.22,12.09,12.09,0,0,1,5.53-1.34,12.58,12.58,0,0,1,5.56,1.17,10.81,10.81,0,0,1,4,3.35,15.76,15.76,0,0,1,2.45,5.23,26,26,0,0,1,.84,6.87,22.32,22.32,0,0,1-1.14,7.4,17.18,17.18,0,0,1-3.08,5.53,13,13,0,0,1-4.49,3.45,12.69,12.69,0,0,1-5.36,1.17,11,11,0,0,1-4.52-1,22.83,22.83,0,0,1-4.52-2.75Zm0-10a14.61,14.61,0,0,0,4.29,2.65,10.75,10.75,0,0,0,3.68.77,7.82,7.82,0,0,0,3.72-.9,8.89,8.89,0,0,0,2.95-2.55,12.43,12.43,0,0,0,1.94-4.05,19.34,19.34,0,0,0,.7-5.43,23.69,23.69,0,0,0-.47-4.89,11,11,0,0,0-1.51-3.79,7.24,7.24,0,0,0-2.68-2.45,8.27,8.27,0,0,0-3.92-.87,8.75,8.75,0,0,0-4.19,1.14,24.57,24.57,0,0,0-4.52,3.28Z"/><path d="M1311.49,181.75v11H1306v-46.3h4.56l.47,3.75h.2a24.78,24.78,0,0,1,4.86-3.22,12.09,12.09,0,0,1,5.53-1.34,12.57,12.57,0,0,1,5.56,1.17,10.81,10.81,0,0,1,4,3.35,15.72,15.72,0,0,1,2.45,5.23,25.93,25.93,0,0,1,.84,6.87,22.32,22.32,0,0,1-1.14,7.4,17.16,17.16,0,0,1-3.08,5.53,13,13,0,0,1-4.49,3.45,12.69,12.69,0,0,1-5.36,1.17,11,11,0,0,1-4.52-1,22.81,22.81,0,0,1-4.52-2.75Zm0-10a14.59,14.59,0,0,0,4.29,2.65,10.76,10.76,0,0,0,3.69.77,7.82,7.82,0,0,0,3.72-.9,8.87,8.87,0,0,0,2.95-2.55,12.44,12.44,0,0,0,1.94-4.05,19.38,19.38,0,0,0,.7-5.43,23.62,23.62,0,0,0-.47-4.89,10.93,10.93,0,0,0-1.51-3.79,7.24,7.24,0,0,0-2.68-2.45,8.27,8.27,0,0,0-3.92-.87,8.75,8.75,0,0,0-4.19,1.14,24.5,24.5,0,0,0-4.52,3.28Z"/></g><line class="cls-3" x1="521.77" y1="237" x2="521.77" y2="844"/><line class="cls-3" x1="904.77" y1="237" x2="904.77" y2="844"/><line class="cls-3" x1="1287.77" y1="237" x2="1287.77" y2="844"/><line class="cls-3" x1="1670.77" y1="237" x2="1670.77" y2="844"/><line class="cls-4" x1="138.77" y1="844.5" x2="138.77" y2="237.5"/><g class="cls-5"><path d="M137.91,893.38a5,5,0,0,1-4.53-2.77q-1.58-2.77-1.58-7.92t1.58-7.82a5.14,5.14,0,0,1,9.06,0q1.58,2.7,1.58,7.82t-1.58,7.92A5,5,0,0,1,137.91,893.38Zm0-1.22a3.81,3.81,0,0,0,3.41-2.38,15.59,15.59,0,0,0,1.26-7.09q0-4.71-1.26-7a3.66,3.66,0,0,0-6.8,0q-1.28,2.3-1.28,7a15.41,15.41,0,0,0,1.28,7.09A3.82,3.82,0,0,0,137.91,892.17Z"/></g><g class="cls-6"><path d="M509,891.75h4.8v-17h-3.65v-1a16.52,16.52,0,0,0,2.22-.54,9.47,9.47,0,0,0,1.71-.74h1.15v19.2h4.45V893H509Z"/><path d="M529.24,893.38a5,5,0,0,1-4.53-2.77q-1.58-2.77-1.58-7.92t1.58-7.82a5.14,5.14,0,0,1,9.06,0q1.58,2.7,1.58,7.82t-1.58,7.92A5,5,0,0,1,529.24,893.38Zm0-1.22a3.81,3.81,0,0,0,3.41-2.38,15.59,15.59,0,0,0,1.26-7.09q0-4.71-1.26-7a3.66,3.66,0,0,0-6.8,0q-1.28,2.3-1.28,7a15.41,15.41,0,0,0,1.28,7.09A3.82,3.82,0,0,0,529.24,892.17Z"/></g><g class="cls-7"><path d="M890.58,892.1q2.53-2.56,4.42-4.59a47.79,47.79,0,0,0,3.15-3.71,15.91,15.91,0,0,0,1.89-3.1,6.88,6.88,0,0,0,.63-2.77,4.94,4.94,0,0,0-1.07-3.23,4.11,4.11,0,0,0-3.38-1.31,4.82,4.82,0,0,0-2.62.77,8.7,8.7,0,0,0-2.14,1.92l-.93-.9a11.76,11.76,0,0,1,2.54-2.14,6.09,6.09,0,0,1,3.28-.86,5.62,5.62,0,0,1,4.26,1.57,5.76,5.76,0,0,1,1.5,4.16,7.51,7.51,0,0,1-.67,3.06,17.84,17.84,0,0,1-1.89,3.2,40.83,40.83,0,0,1-3,3.58q-1.75,1.9-3.86,4.14l1.71-.11q.88,0,1.71,0h7V893H890.58Z"/><path d="M912.24,893.38a5,5,0,0,1-4.53-2.77q-1.58-2.77-1.58-7.92t1.58-7.82a5.14,5.14,0,0,1,9.06,0q1.58,2.7,1.58,7.82t-1.58,7.92A5,5,0,0,1,912.24,893.38Zm0-1.22a3.81,3.81,0,0,0,3.41-2.38,15.58,15.58,0,0,0,1.26-7.09q0-4.71-1.26-7a3.66,3.66,0,0,0-6.8,0q-1.28,2.3-1.28,7a15.41,15.41,0,0,0,1.28,7.09A3.82,3.82,0,0,0,912.24,892.17Z"/></g><g class="cls-8"><path d="M1274,889.51a9.49,9.49,0,0,0,1,1,6.87,6.87,0,0,0,1.23.83,7.09,7.09,0,0,0,1.54.59,7.47,7.47,0,0,0,1.9.22,5.54,5.54,0,0,0,1.9-.32,4.46,4.46,0,0,0,1.52-.91,4.07,4.07,0,0,0,1-1.42,4.73,4.73,0,0,0,.35-1.86,4.52,4.52,0,0,0-.4-1.92,3.8,3.8,0,0,0-1.26-1.49,6.59,6.59,0,0,0-2.21-1,13.07,13.07,0,0,0-3.26-.35v-1.25a11,11,0,0,0,3-.35,5.72,5.72,0,0,0,2-.94,3.45,3.45,0,0,0,1.09-1.41,4.54,4.54,0,0,0,.34-1.74,3.6,3.6,0,0,0-1.12-2.77,4.25,4.25,0,0,0-3-1,5.32,5.32,0,0,0-2.62.66,8.78,8.78,0,0,0-2.08,1.58l-.83-1a11,11,0,0,1,2.4-1.76,6.42,6.42,0,0,1,3.14-.74,7.05,7.05,0,0,1,2.21.34,5.37,5.37,0,0,1,1.78,1,4.45,4.45,0,0,1,1.18,1.54,4.84,4.84,0,0,1,.43,2.1,4.68,4.68,0,0,1-1.1,3.25,6.49,6.49,0,0,1-2.8,1.81v.13a6.16,6.16,0,0,1,3.26,1.79,5,5,0,0,1,1.38,3.52,5.84,5.84,0,0,1-.48,2.42,5.3,5.3,0,0,1-1.33,1.82,5.9,5.9,0,0,1-2,1.15,7.32,7.32,0,0,1-2.45.4,8.83,8.83,0,0,1-2.21-.26,8.13,8.13,0,0,1-1.78-.67,8.5,8.5,0,0,1-1.41-.93,11.62,11.62,0,0,1-1.1-1Z"/><path d="M1295.24,893.38a5,5,0,0,1-4.53-2.77q-1.58-2.77-1.58-7.92t1.58-7.82a5.14,5.14,0,0,1,9.06,0q1.58,2.7,1.58,7.82t-1.58,7.92A5,5,0,0,1,1295.24,893.38Zm0-1.22a3.81,3.81,0,0,0,3.41-2.38,15.58,15.58,0,0,0,1.26-7.09q0-4.71-1.26-7a3.66,3.66,0,0,0-6.8,0q-1.28,2.3-1.28,7a15.41,15.41,0,0,0,1.28,7.09A3.82,3.82,0,0,0,1295.24,892.17Z"/></g><g class="cls-9"><path d="M1669.6,886.89h-3V893h-1.38v-6.11h-9.41v-.83l9.5-13.5h1.28v13.12h3Zm-4.42-1.22v-7.49q0-.7,0-1.76t.1-1.76h-.13q-.38.64-.8,1.25t-.86,1.31l-6,8.45Z"/><path d="M1678.24,893.38a5,5,0,0,1-4.53-2.77q-1.58-2.77-1.58-7.92t1.58-7.82a5.14,5.14,0,0,1,9.06,0q1.58,2.7,1.58,7.82t-1.58,7.92A5,5,0,0,1,1678.24,893.38Zm0-1.22a3.81,3.81,0,0,0,3.41-2.38,15.58,15.58,0,0,0,1.26-7.09q0-4.71-1.26-7a3.66,3.66,0,0,0-6.8,0q-1.28,2.3-1.28,7a15.41,15.41,0,0,0,1.28,7.09A3.82,3.82,0,0,0,1678.24,892.17Z"/></g><g class="cls-10"><rect class="cls-11" x="139.27" y="689" width="313" height="128"/></g><g class="cls-10"><rect class="cls-12" x="139.27" y="547" width="1313" height="129"/></g><g class="cls-10"><rect class="cls-13" x="139.27" y="406" width="742" height="128"/></g><g class="cls-10"><rect class="cls-14" x="139.27" y="264" width="532" height="129"/></g><g class="cls-15"><g class="cls-16"><g class="cls-17"><path class="cls-18" d="M356.52,735.79a12.1,12.1,0,0,1,7.74,2.27,7.57,7.57,0,0,1,2.86,6.27,7.81,7.81,0,0,1-1.64,4.81,14.44,14.44,0,0,1-5.22,4,17.57,17.57,0,0,1,6.18,4.36,8.21,8.21,0,0,1,1.83,5.29,8.86,8.86,0,0,1-3.1,7.09q-3.1,2.65-8.5,2.65-5.71,0-8.79-2.5a8.62,8.62,0,0,1-3.08-7.09q0-6.13,7.47-9.55a13.79,13.79,0,0,1-4.83-4.11,8.75,8.75,0,0,1-1.46-4.94,7.53,7.53,0,0,1,2.87-6.19A11.89,11.89,0,0,1,356.52,735.79ZM348.81,763a5.52,5.52,0,0,0,2,4.57,8.93,8.93,0,0,0,5.73,1.64,8.53,8.53,0,0,0,5.66-1.71,5.8,5.8,0,0,0,2-4.69,5.72,5.72,0,0,0-1.9-4.21,19.45,19.45,0,0,0-6.64-3.58,14.45,14.45,0,0,0-5.27,3.46A6.69,6.69,0,0,0,348.81,763Zm7.67-23.9a7.19,7.19,0,0,0-4.79,1.46,4.86,4.86,0,0,0-1.73,3.91,5.59,5.59,0,0,0,1.44,3.86,15,15,0,0,0,5.32,3.22,13.34,13.34,0,0,0,4.94-3.15,5.83,5.83,0,0,0,1.45-3.93,4.8,4.8,0,0,0-1.77-3.92A7.46,7.46,0,0,0,356.48,739.09Z"/><path class="cls-18" d="M374.57,769.41a3.64,3.64,0,0,1,.74-2.48,2.7,2.7,0,0,1,2.14-.84,2.89,2.89,0,0,1,2.21.84,3.49,3.49,0,0,1,.79,2.48,3.42,3.42,0,0,1-.81,2.44,3.2,3.2,0,0,1-4.26.09A3.34,3.34,0,0,1,374.57,769.41Z"/><path class="cls-18" d="M410.06,772H386.6v-3.49l9.4-9.45a69.15,69.15,0,0,0,5.66-6.2,15.84,15.84,0,0,0,2.05-3.61,10.35,10.35,0,0,0,.68-3.78,6,6,0,0,0-1.73-4.53,6.64,6.64,0,0,0-4.81-1.67,12.09,12.09,0,0,0-4.21.73,16.8,16.8,0,0,0-4.43,2.66l-2.15-2.76a16.45,16.45,0,0,1,10.74-4.1q5,0,7.89,2.58a8.86,8.86,0,0,1,2.86,6.92,13.36,13.36,0,0,1-1.9,6.71,42.6,42.6,0,0,1-7.13,8.4L391.71,768v.2h18.36Z"/><path class="cls-18" d="M447.3,764.7a6.7,6.7,0,0,1-2.78,5.76q-2.78,2-7.81,2-5.32,0-8.3-1.68V767a20,20,0,0,0,4.14,1.54,17.25,17.25,0,0,0,4.26.56,9.67,9.67,0,0,0,4.88-1,3.49,3.49,0,0,0,.35-5.76,21.32,21.32,0,0,0-5.29-2.62,28.61,28.61,0,0,1-5.31-2.43A7.25,7.25,0,0,1,429.1,755a6.14,6.14,0,0,1-.77-3.15,6,6,0,0,1,2.66-5.16,12.4,12.4,0,0,1,7.3-1.89,21.36,21.36,0,0,1,8.45,1.76l-1.44,3.3a19.4,19.4,0,0,0-7.3-1.66,8.4,8.4,0,0,0-4.35.9,2.79,2.79,0,0,0-1.46,2.49,3,3,0,0,0,.55,1.83,5.41,5.41,0,0,0,1.77,1.44,39.39,39.39,0,0,0,4.69,2q4.76,1.73,6.43,3.49A6.16,6.16,0,0,1,447.3,764.7Z"/></g></g></g><g class="cls-15"><g class="cls-19"><g class="cls-20"><path class="cls-18" d="M1334.67,622.4A16.21,16.21,0,0,0,1338,625a9.16,9.16,0,0,0,4.77,1.15,7.07,7.07,0,0,0,4.75-1.58,5.32,5.32,0,0,0,1.85-4.28,6.25,6.25,0,0,0-.53-2.57,5,5,0,0,0-1.72-2,8.89,8.89,0,0,0-3.15-1.3,21.75,21.75,0,0,0-4.8-.45v-3.15a17.24,17.24,0,0,0,4.27-.45,8.1,8.1,0,0,0,2.8-1.25,4.48,4.48,0,0,0,1.52-1.9,6.15,6.15,0,0,0,.45-2.35,4.77,4.77,0,0,0-1.47-3.7,5.74,5.74,0,0,0-4-1.35,7.64,7.64,0,0,0-3.67.9,13.35,13.35,0,0,0-3.12,2.35l-2.2-2.6a17.2,17.2,0,0,1,4.08-2.87,11.09,11.09,0,0,1,5.08-1.12,12.81,12.81,0,0,1,3.85.55,9.19,9.19,0,0,1,3,1.58,7,7,0,0,1,2,2.53,8.07,8.07,0,0,1,.7,3.45,7,7,0,0,1-1.6,4.75,10.33,10.33,0,0,1-4.2,2.85v.2a11.17,11.17,0,0,1,2.7,1,8.49,8.49,0,0,1,2.2,1.7,7.42,7.42,0,0,1,1.48,2.38,8.23,8.23,0,0,1,.52,3,8.58,8.58,0,0,1-.83,3.8,8.45,8.45,0,0,1-2.25,2.88,10.13,10.13,0,0,1-3.32,1.8,13,13,0,0,1-4.1.63,15,15,0,0,1-3.47-.37,14.13,14.13,0,0,1-2.87-1,12.6,12.6,0,0,1-2.33-1.42,13.62,13.62,0,0,1-1.83-1.7Z"/><path class="cls-18" d="M1379.57,620.2h-4.35V629h-3.9v-8.8H1357v-2.7l13.65-20.4h4.6v19.8h4.35Zm-8.25-3.3v-9.25q0-1.3.08-3.08t.17-3.08h-.2q-.6,1.15-1.25,2.25t-1.35,2.25l-7.45,10.9Z"/><path class="cls-18" d="M1384.22,626.5a3.14,3.14,0,0,1,.88-2.33,2.89,2.89,0,0,1,2.13-.87,2.84,2.84,0,0,1,2.08.88,3.15,3.15,0,0,1,.88,2.33,3,3,0,0,1-.87,2.22,2.84,2.84,0,0,1-2.08.88,2.89,2.89,0,0,1-2.12-.87A3,3,0,0,1,1384.22,626.5Z"/><path class="cls-18" d="M1396.82,622.4a16.26,16.26,0,0,0,3.38,2.65,9.16,9.16,0,0,0,4.78,1.15,7.08,7.08,0,0,0,4.75-1.58,5.32,5.32,0,0,0,1.85-4.28,6.23,6.23,0,0,0-.53-2.57,5,5,0,0,0-1.72-2,8.88,8.88,0,0,0-3.15-1.3,21.73,21.73,0,0,0-4.8-.45v-3.15a17.24,17.24,0,0,0,4.27-.45,8.09,8.09,0,0,0,2.8-1.25,4.48,4.48,0,0,0,1.53-1.9,6.14,6.14,0,0,0,.45-2.35,4.77,4.77,0,0,0-1.47-3.7,5.73,5.73,0,0,0-4-1.35,7.64,7.64,0,0,0-3.67.9,13.35,13.35,0,0,0-3.12,2.35l-2.2-2.6a17.2,17.2,0,0,1,4.08-2.87,11.09,11.09,0,0,1,5.07-1.12,12.8,12.8,0,0,1,3.85.55,9.17,9.17,0,0,1,3,1.58,7,7,0,0,1,2,2.53,8.07,8.07,0,0,1,.7,3.45,7,7,0,0,1-1.6,4.75,10.34,10.34,0,0,1-4.2,2.85v.2a11.16,11.16,0,0,1,2.7,1,8.49,8.49,0,0,1,2.2,1.7,7.4,7.4,0,0,1,1.47,2.38,8.23,8.23,0,0,1,.53,3,8.59,8.59,0,0,1-.83,3.8,8.45,8.45,0,0,1-2.25,2.88,10.13,10.13,0,0,1-3.33,1.8,13,13,0,0,1-4.1.63,15,15,0,0,1-3.47-.37,14.09,14.09,0,0,1-2.87-1,12.64,12.64,0,0,1-2.33-1.42,13.61,13.61,0,0,1-1.82-1.7Z"/><path class="cls-18" d="M1431.82,623.5a16.35,16.35,0,0,0,3.28,2.1,8.87,8.87,0,0,0,3.88.8,5.17,5.17,0,0,0,3.6-1.1,3.52,3.52,0,0,0,1.2-2.7,2.76,2.76,0,0,0-.5-1.65,5,5,0,0,0-1.27-1.23,9.43,9.43,0,0,0-1.77-.92l-2-.8q-1.3-.45-2.6-1a10.37,10.37,0,0,1-2.33-1.4,7.06,7.06,0,0,1-1.67-1.92A5.12,5.12,0,0,1,1431,611a6.56,6.56,0,0,1,.57-2.72,6.27,6.27,0,0,1,1.65-2.2,7.82,7.82,0,0,1,2.63-1.45,11.71,11.71,0,0,1,7.72.28,13.18,13.18,0,0,1,3.33,1.95l-2,2.6a13.06,13.06,0,0,0-2.6-1.55,7.18,7.18,0,0,0-3-.6,4.68,4.68,0,0,0-3.37,1,3.32,3.32,0,0,0-1.08,2.45,2.35,2.35,0,0,0,.45,1.45,4.78,4.78,0,0,0,1.2,1.1,8.74,8.74,0,0,0,1.72.88l2,.78q1.3.5,2.63,1a10.1,10.1,0,0,1,2.38,1.38,6.76,6.76,0,0,1,1.72,2,5.83,5.83,0,0,1,.68,2.9,6.86,6.86,0,0,1-.58,2.8,6.65,6.65,0,0,1-1.7,2.3,8.11,8.11,0,0,1-2.8,1.58,11.77,11.77,0,0,1-3.82.57,13.09,13.09,0,0,1-5-.95,15.42,15.42,0,0,1-4.1-2.4Z"/></g></g></g><g class="cls-15"><g class="cls-21"><g class="cls-22"><path class="cls-18" d="M765.22,484.6h7.3V461.1h-5.8v-2.65a24.88,24.88,0,0,0,3.82-1,15.25,15.25,0,0,0,2.93-1.37h3.15v28.5h6.6V488h-18Z"/><path class="cls-18" d="M791,482.65a7.8,7.8,0,0,0,2.38,1.85,6.26,6.26,0,0,0,2.88.7,7.47,7.47,0,0,0,3.2-.7,6.81,6.81,0,0,0,2.65-2.33,13.27,13.27,0,0,0,1.85-4.22,26.56,26.56,0,0,0,.75-6.45,11.48,11.48,0,0,1-3.5,3,8.24,8.24,0,0,1-4,1.1,8.92,8.92,0,0,1-6.6-2.45q-2.45-2.45-2.45-7.4a11.15,11.15,0,0,1,.75-4.17,10.11,10.11,0,0,1,2-3.23,9.12,9.12,0,0,1,6.63-2.85,10.18,10.18,0,0,1,4.38,1,9.44,9.44,0,0,1,3.5,2.88,14.31,14.31,0,0,1,2.3,4.8,24.51,24.51,0,0,1,.82,6.72,29.08,29.08,0,0,1-1,8.18,16,16,0,0,1-2.7,5.5,10.45,10.45,0,0,1-3.87,3.1,11.06,11.06,0,0,1-4.58,1,10,10,0,0,1-4.48-.95,10.51,10.51,0,0,1-3.23-2.4Zm6.9-10.15a7,7,0,0,0,3.33-1,10.39,10.39,0,0,0,3.38-3.28q-.4-4.7-2.2-7.1a5.75,5.75,0,0,0-4.85-2.4,4.9,4.9,0,0,0-2.17.5,5.22,5.22,0,0,0-1.77,1.42,6.89,6.89,0,0,0-1.18,2.23,9.12,9.12,0,0,0-.42,2.85,7.68,7.68,0,0,0,1.45,5A5.37,5.37,0,0,0,797.87,472.5Z"/><path class="cls-18" d="M814.22,485.5a3.14,3.14,0,0,1,.88-2.33,2.89,2.89,0,0,1,2.13-.87,2.84,2.84,0,0,1,2.08.88,3.15,3.15,0,0,1,.88,2.33,3,3,0,0,1-.87,2.22,2.84,2.84,0,0,1-2.08.88,2.89,2.89,0,0,1-2.12-.87A3,3,0,0,1,814.22,485.5Z"/><path class="cls-18" d="M846.87,479.2h-4.35V488h-3.9v-8.8H824.27v-2.7l13.65-20.4h4.6v19.8h4.35Zm-8.25-3.3v-9.25q0-1.3.07-3.08t.18-3.08h-.2q-.6,1.15-1.25,2.25T836.07,465l-7.45,10.9Z"/><path class="cls-18" d="M861.82,482.5a16.35,16.35,0,0,0,3.28,2.1,8.87,8.87,0,0,0,3.88.8,5.17,5.17,0,0,0,3.6-1.1,3.52,3.52,0,0,0,1.2-2.7,2.76,2.76,0,0,0-.5-1.65,5,5,0,0,0-1.27-1.23,9.43,9.43,0,0,0-1.77-.92l-2-.8q-1.3-.45-2.6-1a10.37,10.37,0,0,1-2.33-1.4,7.06,7.06,0,0,1-1.67-1.92A5.12,5.12,0,0,1,861,470a6.55,6.55,0,0,1,.57-2.72,6.27,6.27,0,0,1,1.65-2.2,7.82,7.82,0,0,1,2.63-1.45,11.71,11.71,0,0,1,7.72.28,13.18,13.18,0,0,1,3.33,1.95l-2,2.6a13.06,13.06,0,0,0-2.6-1.55,7.18,7.18,0,0,0-3-.6,4.68,4.68,0,0,0-3.37,1,3.32,3.32,0,0,0-1.08,2.45,2.35,2.35,0,0,0,.45,1.45,4.78,4.78,0,0,0,1.2,1.1,8.74,8.74,0,0,0,1.72.88l2,.78q1.3.5,2.63,1a10.1,10.1,0,0,1,2.38,1.38,6.76,6.76,0,0,1,1.72,2,5.83,5.83,0,0,1,.68,2.9,6.86,6.86,0,0,1-.58,2.8,6.65,6.65,0,0,1-1.7,2.3,8.11,8.11,0,0,1-2.8,1.58,11.77,11.77,0,0,1-3.82.57,13.09,13.09,0,0,1-5-.95,15.41,15.41,0,0,1-4.1-2.4Z"/></g></g></g><g class="cls-15"><g class="cls-23"><g class="cls-24"><path class="cls-18" d="M554.22,342.6h7.3V319.1h-5.8v-2.65a24.88,24.88,0,0,0,3.82-1,15.25,15.25,0,0,0,2.93-1.37h3.15v28.5h6.6V346h-18Z"/><path class="cls-18" d="M578.52,339.4a16.23,16.23,0,0,0,3.38,2.65,9.16,9.16,0,0,0,4.77,1.15,7.07,7.07,0,0,0,4.75-1.58,5.32,5.32,0,0,0,1.85-4.28,6.24,6.24,0,0,0-.52-2.57,5,5,0,0,0-1.73-2,8.88,8.88,0,0,0-3.15-1.3,21.75,21.75,0,0,0-4.8-.45v-3.15a17.25,17.25,0,0,0,4.27-.45,8.09,8.09,0,0,0,2.8-1.25,4.48,4.48,0,0,0,1.52-1.9,6.14,6.14,0,0,0,.45-2.35,4.77,4.77,0,0,0-1.48-3.7,5.73,5.73,0,0,0-4-1.35,7.64,7.64,0,0,0-3.67.9,13.36,13.36,0,0,0-3.12,2.35l-2.2-2.6a17.2,17.2,0,0,1,4.08-2.87,11.09,11.09,0,0,1,5.07-1.12,12.81,12.81,0,0,1,3.85.55,9.18,9.18,0,0,1,3,1.58,7,7,0,0,1,2,2.53,8.07,8.07,0,0,1,.7,3.45,7,7,0,0,1-1.6,4.75,10.33,10.33,0,0,1-4.2,2.85v.2a11.17,11.17,0,0,1,2.7,1,8.48,8.48,0,0,1,2.2,1.7,7.41,7.41,0,0,1,1.48,2.38,8.22,8.22,0,0,1,.52,3,8.59,8.59,0,0,1-.82,3.8,8.46,8.46,0,0,1-2.25,2.88A10.13,10.13,0,0,1,591,346a13,13,0,0,1-4.1.63,15,15,0,0,1-3.47-.37,14.12,14.12,0,0,1-2.87-1,12.6,12.6,0,0,1-2.33-1.42,13.62,13.62,0,0,1-1.83-1.7Z"/><path class="cls-18" d="M603.22,343.5a3.14,3.14,0,0,1,.88-2.33,2.89,2.89,0,0,1,2.13-.87,2.84,2.84,0,0,1,2.08.88,3.15,3.15,0,0,1,.88,2.33,3,3,0,0,1-.87,2.22,2.84,2.84,0,0,1-2.08.88,2.89,2.89,0,0,1-2.12-.87A3,3,0,0,1,603.22,343.5Z"/><path class="cls-18" d="M617.27,340.65a7.8,7.8,0,0,0,2.38,1.85,6.26,6.26,0,0,0,2.88.7,7.47,7.47,0,0,0,3.2-.7,6.81,6.81,0,0,0,2.65-2.33,13.27,13.27,0,0,0,1.85-4.22,26.56,26.56,0,0,0,.75-6.45,11.48,11.48,0,0,1-3.5,3,8.24,8.24,0,0,1-4,1.1,8.92,8.92,0,0,1-6.6-2.45q-2.45-2.45-2.45-7.4a11.15,11.15,0,0,1,.75-4.17,10.11,10.11,0,0,1,2-3.23,9.12,9.12,0,0,1,6.63-2.85,10.18,10.18,0,0,1,4.38,1,9.44,9.44,0,0,1,3.5,2.88,14.31,14.31,0,0,1,2.3,4.8,24.51,24.51,0,0,1,.82,6.72,29.08,29.08,0,0,1-1,8.18,16,16,0,0,1-2.7,5.5,10.45,10.45,0,0,1-3.87,3.1,11.06,11.06,0,0,1-4.58,1,10,10,0,0,1-4.48-.95,10.51,10.51,0,0,1-3.23-2.4Zm6.9-10.15a7,7,0,0,0,3.33-1,10.39,10.39,0,0,0,3.38-3.28q-.4-4.7-2.2-7.1a5.75,5.75,0,0,0-4.85-2.4,4.9,4.9,0,0,0-2.17.5,5.22,5.22,0,0,0-1.77,1.42,6.89,6.89,0,0,0-1.18,2.23,9.12,9.12,0,0,0-.42,2.85,7.68,7.68,0,0,0,1.45,5A5.37,5.37,0,0,0,624.17,330.5Z"/><path class="cls-18" d="M650.82,340.5a16.35,16.35,0,0,0,3.27,2.1,8.88,8.88,0,0,0,3.88.8,5.17,5.17,0,0,0,3.6-1.1,3.52,3.52,0,0,0,1.2-2.7,2.77,2.77,0,0,0-.5-1.65,5,5,0,0,0-1.27-1.23,9.43,9.43,0,0,0-1.77-.92l-2-.8q-1.3-.45-2.6-1a10.36,10.36,0,0,1-2.33-1.4,7.06,7.06,0,0,1-1.67-1.92A5.12,5.12,0,0,1,650,328a6.55,6.55,0,0,1,.57-2.72,6.26,6.26,0,0,1,1.65-2.2,7.81,7.81,0,0,1,2.63-1.45,11.71,11.71,0,0,1,7.72.28,13.18,13.18,0,0,1,3.33,1.95l-2,2.6a13.06,13.06,0,0,0-2.6-1.55,7.18,7.18,0,0,0-3-.6,4.68,4.68,0,0,0-3.37,1,3.32,3.32,0,0,0-1.08,2.45,2.35,2.35,0,0,0,.45,1.45,4.78,4.78,0,0,0,1.2,1.1,8.75,8.75,0,0,0,1.72.88l2,.78q1.3.5,2.63,1a10.1,10.1,0,0,1,2.38,1.38,6.76,6.76,0,0,1,1.72,2,5.83,5.83,0,0,1,.68,2.9,6.86,6.86,0,0,1-.58,2.8,6.66,6.66,0,0,1-1.7,2.3,8.12,8.12,0,0,1-2.8,1.58,11.77,11.77,0,0,1-3.82.57,13.09,13.09,0,0,1-5-.95,15.41,15.41,0,0,1-4.1-2.4Z"/></g></g></g><rect class="cls-14" x="1483.27" y="234" width="37" height="37"/><path d="M1541.38,247.53H1544l.27,2.66h.11a15.06,15.06,0,0,1,2.79-2.22,6.4,6.4,0,0,1,3.4-.89,5,5,0,0,1,4.28,1.82,9,9,0,0,1,1.35,5.4V266H1553V254.71a6.6,6.6,0,0,0-.84-3.78,3.05,3.05,0,0,0-2.66-1.16,4.54,4.54,0,0,0-2.55.72,16.5,16.5,0,0,0-2.51,2.13V266h-3.12Z"/><path d="M1565.28,267.56v6.23h-3.12V247.53h2.58l.27,2.13h.11a14.06,14.06,0,0,1,2.75-1.82,6.85,6.85,0,0,1,3.13-.76,7.13,7.13,0,0,1,3.15.67,6.13,6.13,0,0,1,2.28,1.9,8.9,8.9,0,0,1,1.39,3,14.71,14.71,0,0,1,.48,3.89,12.68,12.68,0,0,1-.65,4.2,9.76,9.76,0,0,1-1.75,3.13,7.41,7.41,0,0,1-2.55,2,7.19,7.19,0,0,1-3,.67,6.22,6.22,0,0,1-2.56-.57,12.94,12.94,0,0,1-2.57-1.56Zm0-5.66a8.29,8.29,0,0,0,2.43,1.5,6.11,6.11,0,0,0,2.09.44,4.43,4.43,0,0,0,2.11-.51,5.05,5.05,0,0,0,1.67-1.44,7.08,7.08,0,0,0,1.1-2.3,11,11,0,0,0,.4-3.08,13.51,13.51,0,0,0-.27-2.77,6.21,6.21,0,0,0-.86-2.15,4.1,4.1,0,0,0-1.52-1.39,4.69,4.69,0,0,0-2.22-.49,5,5,0,0,0-2.37.65,14,14,0,0,0-2.57,1.86Z"/><path d="M1583.26,247.53h2.58l.27,2.66h.11a12.77,12.77,0,0,1,2.64-2.22,5.73,5.73,0,0,1,3.1-.89,5.3,5.3,0,0,1,3.33.93,5.4,5.4,0,0,1,1.77,2.6A15.59,15.59,0,0,1,1600,248a5.64,5.64,0,0,1,3.17-1,5,5,0,0,1,4.24,1.82,8.83,8.83,0,0,1,1.39,5.4V266h-3.12V254.71a6.61,6.61,0,0,0-.84-3.78,3,3,0,0,0-2.58-1.16q-2.09,0-4.64,2.85V266h-3.12V254.71a6.61,6.61,0,0,0-.84-3.78,3,3,0,0,0-2.62-1.16q-2.09,0-4.64,2.85V266h-3.12Z"/><path d="M1624,243.73a2.2,2.2,0,0,1-1.54-.57,2,2,0,0,1,0-2.91,2.43,2.43,0,0,1,3.08,0,2,2,0,0,1,0,2.91A2.21,2.21,0,0,1,1624,243.73Zm-1.6,3.8h3.12V266h-3.12Z"/><rect class="cls-13" x="1483.27" y="281" width="37" height="37"/><path d="M1545.64,303.35l-7.52-15.28h3.42l3.19,7,1.2,2.7q.59,1.33,1.24,2.74h.15q.65-1.41,1.27-2.74t1.2-2.7l3.23-7h3.27l-7.49,15.28V313h-3.15Z"/><path d="M1555.82,308.21a5.12,5.12,0,0,1,2.72-4.66q2.72-1.61,8.65-2.26a8.5,8.5,0,0,0-.17-1.71,4.08,4.08,0,0,0-.61-1.48,3.31,3.31,0,0,0-1.16-1,3.83,3.83,0,0,0-1.86-.4,7.45,7.45,0,0,0-3,.61,15,15,0,0,0-2.49,1.37l-1.25-2.17a20.21,20.21,0,0,1,3.15-1.61,10.52,10.52,0,0,1,4.1-.78q3.38,0,4.9,2.07a9.14,9.14,0,0,1,1.52,5.53V313h-2.58l-.27-2.2h-.08a15.26,15.26,0,0,1-2.87,1.88,7.1,7.1,0,0,1-3.25.78,5.64,5.64,0,0,1-3.9-1.37A4.91,4.91,0,0,1,1555.82,308.21Zm3.08-.23a2.64,2.64,0,0,0,.93,2.28,3.78,3.78,0,0,0,2.3.68,5.37,5.37,0,0,0,2.53-.63,12.3,12.3,0,0,0,2.53-1.84v-5.13a32.48,32.48,0,0,0-3.91.72,10.22,10.22,0,0,0-2.57,1,3.67,3.67,0,0,0-1.39,1.31A3.23,3.23,0,0,0,1558.9,308Z"/><path d="M1576.19,294.53h2.58l.27,3.34h.11a8.54,8.54,0,0,1,2.3-2.77,4.76,4.76,0,0,1,2.95-1,4.92,4.92,0,0,1,2,.38l-.61,2.74a7.12,7.12,0,0,0-.84-.23,5,5,0,0,0-1-.08,4.14,4.14,0,0,0-2.45,1,7.56,7.56,0,0,0-2.22,3.31V313h-3.12Z"/><path d="M1589.38,294.53H1592l.27,2.66h.11a15.09,15.09,0,0,1,2.79-2.22,6.4,6.4,0,0,1,3.4-.89,5,5,0,0,1,4.27,1.82,9,9,0,0,1,1.35,5.4V313H1601V301.71a6.6,6.6,0,0,0-.84-3.78,3.06,3.06,0,0,0-2.66-1.16,4.54,4.54,0,0,0-2.55.72,16.59,16.59,0,0,0-2.51,2.13V313h-3.12Z"/><rect class="cls-12" x="1483.27" y="328" width="37" height="37"/><path d="M1544.5,361.56v6.23h-3.12V341.53H1544l.27,2.13h.11a14.06,14.06,0,0,1,2.75-1.82,6.85,6.85,0,0,1,3.14-.76,7.13,7.13,0,0,1,3.15.67,6.14,6.14,0,0,1,2.28,1.9,8.92,8.92,0,0,1,1.39,3,14.72,14.72,0,0,1,.47,3.89,12.65,12.65,0,0,1-.65,4.2,9.74,9.74,0,0,1-1.75,3.13,7.4,7.4,0,0,1-2.55,2,7.19,7.19,0,0,1-3,.67,6.23,6.23,0,0,1-2.57-.57,13,13,0,0,1-2.56-1.56Zm0-5.66a8.3,8.3,0,0,0,2.43,1.5,6.12,6.12,0,0,0,2.09.44,4.44,4.44,0,0,0,2.11-.51,5,5,0,0,0,1.67-1.44,7,7,0,0,0,1.1-2.3,11,11,0,0,0,.4-3.08,13.37,13.37,0,0,0-.27-2.77,6.21,6.21,0,0,0-.85-2.15,4.1,4.1,0,0,0-1.52-1.39,4.69,4.69,0,0,0-2.22-.49,5,5,0,0,0-2.37.65,14,14,0,0,0-2.56,1.86Z"/><path d="M1562.47,341.53h2.58l.27,2.66h.11a15.06,15.06,0,0,1,2.79-2.22,6.4,6.4,0,0,1,3.4-.89,5,5,0,0,1,4.28,1.82,9,9,0,0,1,1.35,5.4V360h-3.12V348.71a6.6,6.6,0,0,0-.84-3.78,3.05,3.05,0,0,0-2.66-1.16,4.54,4.54,0,0,0-2.55.72,16.5,16.5,0,0,0-2.51,2.13V360h-3.12Z"/><path d="M1586.37,361.56v6.23h-3.12V341.53h2.58l.27,2.13h.11a14,14,0,0,1,2.76-1.82,6.85,6.85,0,0,1,3.13-.76,7.13,7.13,0,0,1,3.15.67,6.13,6.13,0,0,1,2.28,1.9,8.9,8.9,0,0,1,1.39,3,14.71,14.71,0,0,1,.48,3.89,12.68,12.68,0,0,1-.65,4.2,9.76,9.76,0,0,1-1.75,3.13,7.41,7.41,0,0,1-2.55,2,7.18,7.18,0,0,1-3,.67,6.23,6.23,0,0,1-2.57-.57,13,13,0,0,1-2.57-1.56Zm0-5.66a8.3,8.3,0,0,0,2.43,1.5,6.12,6.12,0,0,0,2.09.44,4.44,4.44,0,0,0,2.11-.51,5,5,0,0,0,1.67-1.44,7.06,7.06,0,0,0,1.1-2.3,11,11,0,0,0,.4-3.08,13.44,13.44,0,0,0-.27-2.77,6.21,6.21,0,0,0-.85-2.15,4.11,4.11,0,0,0-1.52-1.39,4.69,4.69,0,0,0-2.22-.49,5,5,0,0,0-2.37.65,14,14,0,0,0-2.56,1.86Z"/><path d="M1604.35,341.53h2.58l.27,2.66h.11A12.77,12.77,0,0,1,1610,342a5.73,5.73,0,0,1,3.1-.89,5.3,5.3,0,0,1,3.33.93,5.4,5.4,0,0,1,1.77,2.6A15.59,15.59,0,0,1,1621,342a5.64,5.64,0,0,1,3.17-1,5,5,0,0,1,4.24,1.82,8.83,8.83,0,0,1,1.39,5.4V360h-3.12V348.71a6.61,6.61,0,0,0-.84-3.78,3,3,0,0,0-2.58-1.16q-2.09,0-4.64,2.85V360h-3.12V348.71a6.61,6.61,0,0,0-.84-3.78,3,3,0,0,0-2.62-1.16q-2.09,0-4.64,2.85V360h-3.12Z"/><rect class="cls-11" x="1483.27" y="375" width="37" height="37"/><path d="M1541.38,388.53H1544l.27,2.66h.11a15.06,15.06,0,0,1,2.79-2.22,6.4,6.4,0,0,1,3.4-.89,5,5,0,0,1,4.28,1.82,9,9,0,0,1,1.35,5.4V407H1553V395.71a6.6,6.6,0,0,0-.84-3.78,3.05,3.05,0,0,0-2.66-1.16,4.54,4.54,0,0,0-2.55.72,16.5,16.5,0,0,0-2.51,2.13V407h-3.12Z"/><path d="M1565.28,408.56v6.23h-3.12V388.53h2.58l.27,2.13h.11a14.06,14.06,0,0,1,2.75-1.82,6.85,6.85,0,0,1,3.13-.76,7.13,7.13,0,0,1,3.15.67,6.13,6.13,0,0,1,2.28,1.9,8.9,8.9,0,0,1,1.39,3,14.71,14.71,0,0,1,.48,3.89,12.68,12.68,0,0,1-.65,4.2,9.76,9.76,0,0,1-1.75,3.13,7.41,7.41,0,0,1-2.55,2,7.19,7.19,0,0,1-3,.67,6.22,6.22,0,0,1-2.56-.57,12.94,12.94,0,0,1-2.57-1.56Zm0-5.66a8.29,8.29,0,0,0,2.43,1.5,6.11,6.11,0,0,0,2.09.44,4.43,4.43,0,0,0,2.11-.51,5.05,5.05,0,0,0,1.67-1.44,7.08,7.08,0,0,0,1.1-2.3,11,11,0,0,0,.4-3.08,13.51,13.51,0,0,0-.27-2.77,6.21,6.21,0,0,0-.86-2.15,4.1,4.1,0,0,0-1.52-1.39,4.69,4.69,0,0,0-2.22-.49,5,5,0,0,0-2.37.65,14,14,0,0,0-2.57,1.86Z"/><path d="M1583.26,388.53h2.58l.27,2.66h.11a12.77,12.77,0,0,1,2.64-2.22,5.73,5.73,0,0,1,3.1-.89,5.3,5.3,0,0,1,3.33.93,5.4,5.4,0,0,1,1.77,2.6A15.59,15.59,0,0,1,1600,389a5.64,5.64,0,0,1,3.17-1,5,5,0,0,1,4.24,1.82,8.83,8.83,0,0,1,1.39,5.4V407h-3.12V395.71a6.61,6.61,0,0,0-.84-3.78,3,3,0,0,0-2.58-1.16q-2.09,0-4.64,2.85V407h-3.12V395.71a6.61,6.61,0,0,0-.84-3.78,3,3,0,0,0-2.62-1.16q-2.09,0-4.64,2.85V407h-3.12Z"/><path d="M1621.07,397.8a11,11,0,0,1,.72-4.12,9.29,9.29,0,0,1,1.94-3.06,8.09,8.09,0,0,1,2.83-1.9,9.09,9.09,0,0,1,3.4-.65,6.86,6.86,0,0,1,3.13.67,10,10,0,0,1,2.26,1.54l-1.56,2a8.79,8.79,0,0,0-1.73-1.18,4.32,4.32,0,0,0-2-.46,5.27,5.27,0,0,0-2.32.51,5.21,5.21,0,0,0-1.82,1.46,7.25,7.25,0,0,0-1.2,2.26,9.13,9.13,0,0,0-.44,2.91,9.34,9.34,0,0,0,.42,2.89,7,7,0,0,0,1.16,2.22,5.11,5.11,0,0,0,1.8,1.44,5.53,5.53,0,0,0,4.73,0,8.67,8.67,0,0,0,1.92-1.31l1.41,2.05a10.12,10.12,0,0,1-2.79,1.75,8.21,8.21,0,0,1-3.21.65,9,9,0,0,1-3.42-.65,7.66,7.66,0,0,1-2.75-1.88,8.82,8.82,0,0,1-1.82-3A11.73,11.73,0,0,1,1621.07,397.8Z"/><path d="M1641.36,384.73a2.2,2.2,0,0,1-1.54-.57,2,2,0,0,1,0-2.91,2.43,2.43,0,0,1,3.08,0,2,2,0,0,1,0,2.91A2.2,2.2,0,0,1,1641.36,384.73Zm-1.6,3.8h3.12V407h-3.12Z"/><path d="M294.15,914.43H292v-1.86l2.28-.15.3-4.08h2.07v4.08h3.93v2h-3.93v8.1a3.72,3.72,0,0,0,.5,2.08,2,2,0,0,0,1.75.73,3.26,3.26,0,0,0,.84-.12,6.34,6.34,0,0,0,.81-.27l.48,1.86a13,13,0,0,1-1.31.38,6.14,6.14,0,0,1-1.4.17,4.75,4.75,0,0,1-2-.36,3.38,3.38,0,0,1-1.29-1,3.85,3.85,0,0,1-.71-1.53,8.72,8.72,0,0,1-.21-2Z"/><path d="M305.13,909.42a1.74,1.74,0,0,1-1.22-.45,1.58,1.58,0,0,1,0-2.29,1.92,1.92,0,0,1,2.43,0,1.58,1.58,0,0,1,0,2.29A1.74,1.74,0,0,1,305.13,909.42Zm-1.26,3h2.46V927h-2.46Z"/><path d="M311.25,912.42h2l.21,2.1h.09a10.12,10.12,0,0,1,2.08-1.75,4.52,4.52,0,0,1,2.45-.71,4.18,4.18,0,0,1,2.63.74,4.27,4.27,0,0,1,1.4,2.05,12.29,12.29,0,0,1,2.29-2,4.45,4.45,0,0,1,2.5-.77,3.94,3.94,0,0,1,3.35,1.44,7,7,0,0,1,1.09,4.26V927h-2.46v-8.91a5.21,5.21,0,0,0-.66-3,2.35,2.35,0,0,0-2-.92q-1.65,0-3.66,2.25V927H320.1v-8.91a5.21,5.21,0,0,0-.66-3,2.38,2.38,0,0,0-2.07-.92q-1.65,0-3.66,2.25V927h-2.46Z"/><path d="M335,919.74a8.82,8.82,0,0,1,.56-3.23,7.55,7.55,0,0,1,1.47-2.42,6.39,6.39,0,0,1,2.09-1.51,5.88,5.88,0,0,1,2.43-.53,6.12,6.12,0,0,1,2.48.48,4.84,4.84,0,0,1,1.83,1.38,6.34,6.34,0,0,1,1.13,2.16,9.53,9.53,0,0,1,.39,2.82,8.41,8.41,0,0,1-.09,1.35h-9.84a5.79,5.79,0,0,0,1.46,3.75,4.47,4.47,0,0,0,3.4,1.38,5.74,5.74,0,0,0,1.94-.31,8.57,8.57,0,0,0,1.69-.83l.87,1.62a12.39,12.39,0,0,1-2.13,1,7.41,7.41,0,0,1-2.67.45,7.14,7.14,0,0,1-2.75-.53,6.5,6.5,0,0,1-2.22-1.5,6.93,6.93,0,0,1-1.48-2.38A8.93,8.93,0,0,1,335,919.74Zm10.2-1.11a5.4,5.4,0,0,0-.95-3.43,3.2,3.2,0,0,0-2.65-1.19,3.6,3.6,0,0,0-1.48.32,4.11,4.11,0,0,0-1.27.9,4.8,4.8,0,0,0-.95,1.44,6.67,6.67,0,0,0-.5,2Z"/><path d="M357.48,914.43h-2.16v-1.86l2.28-.15.3-4.08H360v4.08h3.93v2H360v8.1a3.72,3.72,0,0,0,.5,2.08,2,2,0,0,0,1.75.73,3.26,3.26,0,0,0,.84-.12,6.34,6.34,0,0,0,.81-.27l.48,1.86a13,13,0,0,1-1.31.38,6.14,6.14,0,0,1-1.4.17,4.75,4.75,0,0,1-2-.36,3.38,3.38,0,0,1-1.29-1,3.85,3.85,0,0,1-.71-1.53,8.72,8.72,0,0,1-.21-2Z"/><path d="M365.82,919.74a8.91,8.91,0,0,1,.56-3.25,7.4,7.4,0,0,1,1.48-2.42,6.21,6.21,0,0,1,2.15-1.5,6.7,6.7,0,0,1,5.13,0,6.22,6.22,0,0,1,2.15,1.5,7.42,7.42,0,0,1,1.49,2.42,8.93,8.93,0,0,1,.55,3.25,8.83,8.83,0,0,1-.55,3.22,7.25,7.25,0,0,1-1.49,2.4,6.31,6.31,0,0,1-2.15,1.48,6.7,6.7,0,0,1-5.13,0,6.3,6.3,0,0,1-2.15-1.48,7.22,7.22,0,0,1-1.48-2.4A8.81,8.81,0,0,1,365.82,919.74Zm2.55,0a8.06,8.06,0,0,0,.3,2.28,5.41,5.41,0,0,0,.85,1.76,3.93,3.93,0,0,0,1.33,1.14,3.81,3.81,0,0,0,3.42,0,3.93,3.93,0,0,0,1.33-1.14,5.41,5.41,0,0,0,.85-1.76,8.07,8.07,0,0,0,.3-2.28,8.24,8.24,0,0,0-.3-2.29,5.57,5.57,0,0,0-.85-1.79,3.87,3.87,0,0,0-1.33-1.16,3.81,3.81,0,0,0-3.42,0,3.87,3.87,0,0,0-1.33,1.16,5.57,5.57,0,0,0-.85,1.79A8.22,8.22,0,0,0,368.37,919.74Z"/><path d="M390.48,909.42a1.74,1.74,0,0,1-1.22-.45,1.58,1.58,0,0,1,0-2.29,1.92,1.92,0,0,1,2.43,0,1.58,1.58,0,0,1,0,2.29A1.74,1.74,0,0,1,390.48,909.42Zm-1.26,3h2.46V927h-2.46Z"/><path d="M396.6,912.42h2l.21,2.1h.09a11.94,11.94,0,0,1,2.21-1.75,5.05,5.05,0,0,1,2.69-.71,3.92,3.92,0,0,1,3.38,1.44,7.12,7.12,0,0,1,1.06,4.26V927h-2.46v-8.91a5.21,5.21,0,0,0-.66-3,2.41,2.41,0,0,0-2.1-.92,3.59,3.59,0,0,0-2,.57,13.07,13.07,0,0,0-2,1.68V927H396.6Z"/><path d="M412.61,923.7a9.81,9.81,0,0,0,2,1.26,5.33,5.33,0,0,0,2.32.48,3.11,3.11,0,0,0,2.16-.66,2.11,2.11,0,0,0,.72-1.62,1.66,1.66,0,0,0-.3-1,3,3,0,0,0-.77-.74,5.62,5.62,0,0,0-1.06-.55l-1.2-.48q-.78-.27-1.56-.62a6.19,6.19,0,0,1-1.4-.84,4.23,4.23,0,0,1-1-1.16,3.07,3.07,0,0,1-.39-1.59,3.93,3.93,0,0,1,.34-1.63,3.76,3.76,0,0,1,1-1.32,4.68,4.68,0,0,1,1.58-.87,7,7,0,0,1,4.63.17,7.91,7.91,0,0,1,2,1.17l-1.17,1.56a7.91,7.91,0,0,0-1.56-.93,4.31,4.31,0,0,0-1.77-.36,2.81,2.81,0,0,0-2,.63,2,2,0,0,0-.65,1.47,1.41,1.41,0,0,0,.27.87,2.89,2.89,0,0,0,.72.66,5.23,5.23,0,0,0,1,.52l1.21.46,1.58.63a6,6,0,0,1,1.42.82,4.06,4.06,0,0,1,1,1.21,3.5,3.5,0,0,1,.4,1.74,4.12,4.12,0,0,1-.34,1.68,4,4,0,0,1-1,1.38,4.86,4.86,0,0,1-1.68.94,7,7,0,0,1-2.29.35,7.85,7.85,0,0,1-3-.57,9.24,9.24,0,0,1-2.46-1.44Z"/><path d="M426,914.43h-2.16v-1.86l2.28-.15.3-4.08h2.07v4.08h3.93v2h-3.93v8.1a3.72,3.72,0,0,0,.5,2.08,2,2,0,0,0,1.75.73,3.26,3.26,0,0,0,.84-.12,6.34,6.34,0,0,0,.81-.27l.48,1.86a13,13,0,0,1-1.31.38,6.14,6.14,0,0,1-1.4.17,4.75,4.75,0,0,1-2-.36,3.38,3.38,0,0,1-1.29-1,3.85,3.85,0,0,1-.71-1.53,8.72,8.72,0,0,1-.21-2Z"/><path d="M434.46,923.22a4,4,0,0,1,2.14-3.67,17.75,17.75,0,0,1,6.83-1.79,6.73,6.73,0,0,0-.13-1.35,3.23,3.23,0,0,0-.48-1.17,2.62,2.62,0,0,0-.92-.83,3,3,0,0,0-1.47-.32,5.88,5.88,0,0,0-2.38.48,11.77,11.77,0,0,0-2,1.08l-1-1.71a16,16,0,0,1,2.49-1.28,8.33,8.33,0,0,1,3.24-.62,4.48,4.48,0,0,1,3.87,1.64,7.22,7.22,0,0,1,1.2,4.36V927h-2l-.21-1.74h-.06a12.14,12.14,0,0,1-2.26,1.49,5.62,5.62,0,0,1-2.57.62,4.46,4.46,0,0,1-3.07-1.08A3.88,3.88,0,0,1,434.46,923.22Zm2.43-.18a2.08,2.08,0,0,0,.73,1.8,3,3,0,0,0,1.82.54,4.24,4.24,0,0,0,2-.5,9.68,9.68,0,0,0,2-1.46v-4a25.62,25.62,0,0,0-3.09.57,8,8,0,0,0-2,.78,2.89,2.89,0,0,0-1.1,1A2.55,2.55,0,0,0,436.88,923Z"/><path d="M450.53,905.64H453v18.6a1.29,1.29,0,0,0,.21.84.62.62,0,0,0,.48.24h.23a1.23,1.23,0,0,0,.31-.06l.33,1.86a2.16,2.16,0,0,1-.57.18,4.84,4.84,0,0,1-.84.06,2.3,2.3,0,0,1-2-.84,4.21,4.21,0,0,1-.6-2.46Z"/><path d="M458.18,905.64h2.46v18.6a1.29,1.29,0,0,0,.21.84.62.62,0,0,0,.48.24h.23a1.23,1.23,0,0,0,.31-.06l.33,1.86a2.16,2.16,0,0,1-.57.18,4.84,4.84,0,0,1-.84.06,2.3,2.3,0,0,1-2-.84,4.21,4.21,0,0,1-.6-2.46Z"/><path d="M471.17,923.22a4,4,0,0,1,2.14-3.67,17.75,17.75,0,0,1,6.83-1.79,6.73,6.73,0,0,0-.13-1.35,3.23,3.23,0,0,0-.48-1.17,2.62,2.62,0,0,0-.92-.83,3,3,0,0,0-1.47-.32,5.88,5.88,0,0,0-2.38.48,11.77,11.77,0,0,0-2,1.08l-1-1.71a16,16,0,0,1,2.49-1.28,8.33,8.33,0,0,1,3.24-.62,4.48,4.48,0,0,1,3.87,1.64,7.22,7.22,0,0,1,1.2,4.36V927h-2l-.21-1.74h-.06a12.14,12.14,0,0,1-2.26,1.49,5.62,5.62,0,0,1-2.57.62,4.46,4.46,0,0,1-3.07-1.08A3.88,3.88,0,0,1,471.17,923.22Zm2.43-.18a2.08,2.08,0,0,0,.73,1.8,3,3,0,0,0,1.82.54,4.24,4.24,0,0,0,2-.5,9.68,9.68,0,0,0,2-1.46v-4a25.62,25.62,0,0,0-3.09.57,8,8,0,0,0-2,.78,2.89,2.89,0,0,0-1.1,1A2.55,2.55,0,0,0,473.6,923Z"/><path d="M493.73,914.43h-2.16v-1.86l2.28-.15.3-4.08h2.07v4.08h3.93v2h-3.93v8.1a3.72,3.72,0,0,0,.5,2.08,2,2,0,0,0,1.75.73,3.26,3.26,0,0,0,.84-.12,6.34,6.34,0,0,0,.81-.27l.48,1.86a13,13,0,0,1-1.31.38,6.14,6.14,0,0,1-1.4.17,4.75,4.75,0,0,1-2-.36,3.38,3.38,0,0,1-1.29-1,3.85,3.85,0,0,1-.71-1.53,8.72,8.72,0,0,1-.21-2Z"/><path d="M503,931.16a2.36,2.36,0,0,0,.57.08,2.64,2.64,0,0,0,2.05-.89,6.26,6.26,0,0,0,1.25-2.23l.33-1.08-5.85-14.61h2.55l3,8.07q.33,1,.71,2t.71,2.08h.12q.33-1,.63-2.07t.6-2l2.61-8.07h2.4l-5.49,15.78a17,17,0,0,1-.87,2,6.63,6.63,0,0,1-1.14,1.61,5.08,5.08,0,0,1-1.5,1.06,4.59,4.59,0,0,1-1.95.39,5.33,5.33,0,0,1-.93-.07A3.73,3.73,0,0,1,502,933l.48-2Z"/><path d="M519.92,928.23v4.92h-2.46V912.42h2l.21,1.68h.09a11.12,11.12,0,0,1,2.18-1.44,5.4,5.4,0,0,1,2.48-.6,5.63,5.63,0,0,1,2.49.53,4.85,4.85,0,0,1,1.8,1.5,7.05,7.05,0,0,1,1.09,2.34,11.62,11.62,0,0,1,.38,3.08,10,10,0,0,1-.51,3.32,7.69,7.69,0,0,1-1.38,2.47,5.84,5.84,0,0,1-2,1.54,5.68,5.68,0,0,1-2.4.53,4.92,4.92,0,0,1-2-.45,10.22,10.22,0,0,1-2-1.23Zm0-4.47a6.55,6.55,0,0,0,1.92,1.19,4.83,4.83,0,0,0,1.65.34,3.5,3.5,0,0,0,1.66-.41,4,4,0,0,0,1.32-1.14,5.59,5.59,0,0,0,.87-1.82,8.67,8.67,0,0,0,.31-2.43,10.6,10.6,0,0,0-.21-2.19,4.9,4.9,0,0,0-.68-1.69,3.25,3.25,0,0,0-1.2-1.1,3.72,3.72,0,0,0-1.76-.39,3.92,3.92,0,0,0-1.87.51,11,11,0,0,0-2,1.47Z"/><path d="M535.37,909.42a1.74,1.74,0,0,1-1.22-.45,1.58,1.58,0,0,1,0-2.29,1.92,1.92,0,0,1,2.43,0,1.58,1.58,0,0,1,0,2.29A1.74,1.74,0,0,1,535.37,909.42Zm-1.26,3h2.46V927h-2.46Z"/><path d="M540.41,919.74a8.7,8.7,0,0,1,.57-3.25,7.32,7.32,0,0,1,1.53-2.42,6.37,6.37,0,0,1,2.23-1.5,7.17,7.17,0,0,1,2.69-.51,5.42,5.42,0,0,1,2.48.53,7.92,7.92,0,0,1,1.79,1.21l-1.23,1.59a7,7,0,0,0-1.37-.93,3.41,3.41,0,0,0-1.57-.36,4.16,4.16,0,0,0-1.83.41,4.11,4.11,0,0,0-1.44,1.16,5.71,5.71,0,0,0-.95,1.79,7.22,7.22,0,0,0-.34,2.29,7.37,7.37,0,0,0,.33,2.28,5.52,5.52,0,0,0,.92,1.76,4,4,0,0,0,1.43,1.14,4.36,4.36,0,0,0,3.73,0,6.83,6.83,0,0,0,1.52-1l1.11,1.62a8,8,0,0,1-2.21,1.38,6.49,6.49,0,0,1-2.53.51,7.13,7.13,0,0,1-2.7-.51,6.06,6.06,0,0,1-2.17-1.48,7,7,0,0,1-1.44-2.4A9.28,9.28,0,0,1,540.41,919.74Z"/><path d="M554.15,923.22a4,4,0,0,1,2.14-3.67,17.75,17.75,0,0,1,6.83-1.79,6.73,6.73,0,0,0-.13-1.35,3.23,3.23,0,0,0-.48-1.17,2.62,2.62,0,0,0-.92-.83,3,3,0,0,0-1.47-.32,5.88,5.88,0,0,0-2.38.48,11.77,11.77,0,0,0-2,1.08l-1-1.71a16,16,0,0,1,2.49-1.28,8.33,8.33,0,0,1,3.24-.62,4.48,4.48,0,0,1,3.87,1.64,7.22,7.22,0,0,1,1.2,4.36V927h-2l-.21-1.74h-.06a12.14,12.14,0,0,1-2.26,1.49,5.62,5.62,0,0,1-2.57.62,4.46,4.46,0,0,1-3.07-1.08A3.88,3.88,0,0,1,554.15,923.22Zm2.43-.18a2.08,2.08,0,0,0,.73,1.8,3,3,0,0,0,1.82.54,4.24,4.24,0,0,0,2-.5,9.68,9.68,0,0,0,2-1.46v-4A25.62,25.62,0,0,0,560,920a8,8,0,0,0-2,.78,2.89,2.89,0,0,0-1.1,1A2.55,2.55,0,0,0,556.58,923Z"/><path d="M570.23,905.64h2.46v18.6a1.29,1.29,0,0,0,.21.84.62.62,0,0,0,.48.24h.23a1.23,1.23,0,0,0,.31-.06l.33,1.86a2.16,2.16,0,0,1-.57.18,4.84,4.84,0,0,1-.84.06,2.3,2.3,0,0,1-2-.84,4.21,4.21,0,0,1-.6-2.46Z"/><path d="M582.2,912.42h2.52l2.16,8.43q.24,1.05.45,2l.42,2h.12l.48-2q.24-1,.51-2l2.25-8.43h2.4l2.28,8.43.52,2q.25,1,.5,2h.12q.24-1,.45-2t.45-2l2.13-8.43h2.34L598.4,927h-3l-2.1-7.83q-.27-1.05-.49-2.07t-.5-2.13h-.12q-.24,1.11-.48,2.15t-.54,2.08l-2,7.8h-2.88Z"/><path d="M604.31,919.74a8.82,8.82,0,0,1,.56-3.23,7.55,7.55,0,0,1,1.47-2.42,6.39,6.39,0,0,1,2.09-1.51,5.88,5.88,0,0,1,2.43-.53,6.12,6.12,0,0,1,2.48.48,4.84,4.84,0,0,1,1.83,1.38,6.34,6.34,0,0,1,1.13,2.16,9.53,9.53,0,0,1,.39,2.82,8.41,8.41,0,0,1-.09,1.35h-9.84A5.79,5.79,0,0,0,608.2,924a4.47,4.47,0,0,0,3.4,1.38,5.74,5.74,0,0,0,1.94-.31,8.57,8.57,0,0,0,1.69-.83l.87,1.62a12.39,12.39,0,0,1-2.13,1,7.41,7.41,0,0,1-2.67.45,7.14,7.14,0,0,1-2.75-.53,6.5,6.5,0,0,1-2.22-1.5,6.93,6.93,0,0,1-1.48-2.38A8.93,8.93,0,0,1,604.31,919.74Zm10.2-1.11a5.4,5.4,0,0,0-.95-3.43,3.2,3.2,0,0,0-2.65-1.19,3.6,3.6,0,0,0-1.48.32,4.11,4.11,0,0,0-1.27.9,4.8,4.8,0,0,0-.95,1.44,6.67,6.67,0,0,0-.5,2Z"/><path d="M620.27,905.64h2.46v5.82l-.06,2.64a10.17,10.17,0,0,1,2.16-1.46,5.31,5.31,0,0,1,2.4-.58,5.64,5.64,0,0,1,2.49.53,5,5,0,0,1,1.81,1.5,6.89,6.89,0,0,1,1.11,2.34,11.49,11.49,0,0,1,.38,3,10.13,10.13,0,0,1-.51,3.33,7.66,7.66,0,0,1-1.38,2.49,5.84,5.84,0,0,1-2,1.54,5.68,5.68,0,0,1-2.4.53,5.39,5.39,0,0,1-2.12-.47,7.27,7.27,0,0,1-2.05-1.33h-.09l-.21,1.44h-2Zm2.46,18.12a6.13,6.13,0,0,0,1.91,1.19,5,5,0,0,0,1.67.34,3.5,3.5,0,0,0,1.66-.41,4,4,0,0,0,1.32-1.14,5.59,5.59,0,0,0,.87-1.82,8.67,8.67,0,0,0,.31-2.43,10.6,10.6,0,0,0-.21-2.19,4.9,4.9,0,0,0-.68-1.69,3.25,3.25,0,0,0-1.2-1.1,3.72,3.72,0,0,0-1.76-.39,6.06,6.06,0,0,0-3.9,2Z"/><path d="M642.26,923.22a4,4,0,0,1,2.14-3.67,17.75,17.75,0,0,1,6.83-1.79,6.73,6.73,0,0,0-.13-1.35,3.23,3.23,0,0,0-.48-1.17,2.62,2.62,0,0,0-.92-.83,3,3,0,0,0-1.47-.32,5.88,5.88,0,0,0-2.38.48,11.77,11.77,0,0,0-2,1.08l-1-1.71a16,16,0,0,1,2.49-1.28,8.33,8.33,0,0,1,3.24-.62,4.48,4.48,0,0,1,3.87,1.64,7.22,7.22,0,0,1,1.2,4.36V927h-2l-.21-1.74h-.06a12.14,12.14,0,0,1-2.26,1.49,5.62,5.62,0,0,1-2.57.62,4.46,4.46,0,0,1-3.07-1.08A3.88,3.88,0,0,1,642.26,923.22Zm2.43-.18a2.08,2.08,0,0,0,.73,1.8,3,3,0,0,0,1.82.54,4.24,4.24,0,0,0,2-.5,9.68,9.68,0,0,0,2-1.46v-4a25.62,25.62,0,0,0-3.09.57,8,8,0,0,0-2,.78,2.89,2.89,0,0,0-1.1,1A2.55,2.55,0,0,0,644.69,923Z"/><path d="M660.8,928.23v4.92h-2.46V912.42h2l.21,1.68h.09a11.12,11.12,0,0,1,2.18-1.44,5.4,5.4,0,0,1,2.48-.6,5.63,5.63,0,0,1,2.49.53,4.85,4.85,0,0,1,1.8,1.5,7.05,7.05,0,0,1,1.09,2.34,11.62,11.62,0,0,1,.38,3.08,10,10,0,0,1-.51,3.32,7.69,7.69,0,0,1-1.38,2.47,5.84,5.84,0,0,1-2,1.54,5.68,5.68,0,0,1-2.4.53,4.92,4.92,0,0,1-2-.45,10.22,10.22,0,0,1-2-1.23Zm0-4.47a6.55,6.55,0,0,0,1.92,1.19,4.83,4.83,0,0,0,1.65.34,3.5,3.5,0,0,0,1.66-.41,4,4,0,0,0,1.32-1.14,5.59,5.59,0,0,0,.87-1.82,8.67,8.67,0,0,0,.31-2.43,10.6,10.6,0,0,0-.21-2.19,4.9,4.9,0,0,0-.68-1.69,3.25,3.25,0,0,0-1.2-1.1,3.72,3.72,0,0,0-1.76-.39,3.92,3.92,0,0,0-1.87.51,11,11,0,0,0-2,1.47Z"/><path d="M677.45,928.23v4.92H675V912.42h2l.21,1.68h.09a11.12,11.12,0,0,1,2.18-1.44,5.4,5.4,0,0,1,2.48-.6,5.63,5.63,0,0,1,2.49.53,4.85,4.85,0,0,1,1.8,1.5,7.05,7.05,0,0,1,1.09,2.34,11.62,11.62,0,0,1,.38,3.08,10,10,0,0,1-.51,3.32,7.69,7.69,0,0,1-1.38,2.47,5.84,5.84,0,0,1-2,1.54,5.68,5.68,0,0,1-2.4.53,4.92,4.92,0,0,1-2-.45,10.22,10.22,0,0,1-2-1.23Zm0-4.47a6.55,6.55,0,0,0,1.92,1.19,4.83,4.83,0,0,0,1.65.34,3.5,3.5,0,0,0,1.66-.41,4,4,0,0,0,1.32-1.14,5.59,5.59,0,0,0,.87-1.82,8.67,8.67,0,0,0,.31-2.43,10.6,10.6,0,0,0-.21-2.19,4.9,4.9,0,0,0-.68-1.69,3.25,3.25,0,0,0-1.2-1.1,3.72,3.72,0,0,0-1.76-.39,3.92,3.92,0,0,0-1.87.51,11,11,0,0,0-2,1.47Z"/><path d="M697.49,912.42H700v8.91a5.31,5.31,0,0,0,.64,3,2.37,2.37,0,0,0,2.09.92,3.51,3.51,0,0,0,2-.59,9.42,9.42,0,0,0,1.92-1.87V912.42h2.46V927h-2l-.21-2.28h-.09a9.7,9.7,0,0,1-2.15,1.92,4.81,4.81,0,0,1-2.65.72,4,4,0,0,1-3.41-1.44,7.12,7.12,0,0,1-1.06-4.26Z"/><path d="M713.63,923.7a9.81,9.81,0,0,0,2,1.26,5.33,5.33,0,0,0,2.32.48,3.11,3.11,0,0,0,2.16-.66,2.11,2.11,0,0,0,.72-1.62,1.66,1.66,0,0,0-.3-1,3,3,0,0,0-.77-.74,5.62,5.62,0,0,0-1.06-.55l-1.2-.48q-.78-.27-1.56-.62a6.19,6.19,0,0,1-1.4-.84,4.23,4.23,0,0,1-1-1.16,3.07,3.07,0,0,1-.39-1.59,3.93,3.93,0,0,1,.34-1.63,3.76,3.76,0,0,1,1-1.32,4.68,4.68,0,0,1,1.58-.87,7,7,0,0,1,4.63.17,7.91,7.91,0,0,1,2,1.17l-1.17,1.56a7.91,7.91,0,0,0-1.56-.93,4.31,4.31,0,0,0-1.77-.36,2.81,2.81,0,0,0-2,.63,2,2,0,0,0-.65,1.47,1.41,1.41,0,0,0,.27.87,2.89,2.89,0,0,0,.72.66,5.23,5.23,0,0,0,1,.52l1.21.46,1.58.63a6,6,0,0,1,1.42.82,4.06,4.06,0,0,1,1,1.21,3.5,3.5,0,0,1,.4,1.74,4.12,4.12,0,0,1-.34,1.68,4,4,0,0,1-1,1.38,4.86,4.86,0,0,1-1.68.94,7,7,0,0,1-2.29.35,7.85,7.85,0,0,1-3-.57,9.24,9.24,0,0,1-2.46-1.44Z"/><path d="M727.85,909.42a1.74,1.74,0,0,1-1.22-.45,1.58,1.58,0,0,1,0-2.29,1.92,1.92,0,0,1,2.43,0,1.58,1.58,0,0,1,0,2.29A1.74,1.74,0,0,1,727.85,909.42Zm-1.26,3H729V927h-2.46Z"/><path d="M734,912.42h2l.21,2.1h.09a11.94,11.94,0,0,1,2.21-1.75,5.05,5.05,0,0,1,2.69-.71,3.92,3.92,0,0,1,3.38,1.44,7.12,7.12,0,0,1,1.06,4.26V927h-2.46v-8.91a5.21,5.21,0,0,0-.66-3,2.41,2.41,0,0,0-2.1-.92,3.59,3.59,0,0,0-2,.57,13.07,13.07,0,0,0-2,1.68V927H734Z"/><path d="M749.27,929.79a3.11,3.11,0,0,1,.57-1.77,6,6,0,0,1,1.56-1.53v-.12a2.86,2.86,0,0,1-.92-.92,2.91,2.91,0,0,1,.14-3.08,4.61,4.61,0,0,1,1.08-1.08v-.12a6,6,0,0,1-1.3-1.6,4.54,4.54,0,0,1-.58-2.33,5.17,5.17,0,0,1,.44-2.16,4.88,4.88,0,0,1,1.18-1.63,5.23,5.23,0,0,1,1.76-1,6.22,6.22,0,0,1,2.11-.36,5.71,5.71,0,0,1,1.13.11,6.89,6.89,0,0,1,.95.25h5.07v1.89h-3a4.29,4.29,0,0,1,1.2,3,5.15,5.15,0,0,1-.42,2.12,4.62,4.62,0,0,1-1.14,1.59,5.2,5.2,0,0,1-1.7,1,6,6,0,0,1-2.08.36,4.82,4.82,0,0,1-1.11-.13,5.48,5.48,0,0,1-1.08-.37,3.5,3.5,0,0,0-.66.74,1.77,1.77,0,0,0-.27,1,1.42,1.42,0,0,0,.54,1.14,3.33,3.33,0,0,0,2,.45h2.82a7.13,7.13,0,0,1,3.82.83,2.93,2.93,0,0,1,1.27,2.65,3.92,3.92,0,0,1-.51,1.94,5,5,0,0,1-1.47,1.6,7.73,7.73,0,0,1-2.32,1.1,10.82,10.82,0,0,1-3.08.4,11,11,0,0,1-2.46-.25,6,6,0,0,1-1.9-.76,3.8,3.8,0,0,1-1.23-1.23A3.18,3.18,0,0,1,749.27,929.79Zm2.16-.33a2.1,2.1,0,0,0,1.13,1.86,5.93,5.93,0,0,0,3.11.69,6.65,6.65,0,0,0,1.9-.25,5.28,5.28,0,0,0,1.46-.66,3.1,3.1,0,0,0,.93-.94,2.1,2.1,0,0,0,.33-1.11,1.45,1.45,0,0,0-.75-1.41,4.88,4.88,0,0,0-2.19-.39h-2.52c-.28,0-.58,0-.92,0a4.72,4.72,0,0,1-1-.2,4,4,0,0,0-1.14,1.2A2.52,2.52,0,0,0,751.43,929.46Zm3.87-8.73a3,3,0,0,0,1.19-.24,3.06,3.06,0,0,0,1-.69,3.11,3.11,0,0,0,.67-1.09,4.16,4.16,0,0,0,.24-1.46,3.35,3.35,0,0,0-.9-2.5,3.15,3.15,0,0,0-4.38,0,3.35,3.35,0,0,0-.9,2.5,4.15,4.15,0,0,0,.24,1.46,3.11,3.11,0,0,0,.68,1.09,3.05,3.05,0,0,0,1,.69A3,3,0,0,0,755.3,920.73Z"/><path d="M769,907.32h2.64l3.18,10.62q.51,1.77.93,3.27t1,3.24h.12l.51-1.67q.24-.8.47-1.58t.45-1.59l.47-1.68,3.15-10.62h2.55L778.22,927h-2.91Z"/><path d="M785.78,912.42h2.49v8.91a5.31,5.31,0,0,0,.64,3,2.37,2.37,0,0,0,2.09.92,3.51,3.51,0,0,0,2-.59,9.42,9.42,0,0,0,1.92-1.87V912.42h2.46V927h-2l-.21-2.28H795a9.7,9.7,0,0,1-2.15,1.92,4.81,4.81,0,0,1-2.65.72,4,4,0,0,1-3.41-1.44,7.12,7.12,0,0,1-1.06-4.26Z"/><path d="M801.23,919.74a8.82,8.82,0,0,1,.56-3.23,7.55,7.55,0,0,1,1.47-2.42,6.39,6.39,0,0,1,2.09-1.51,5.88,5.88,0,0,1,2.43-.53,6.12,6.12,0,0,1,2.48.48,4.84,4.84,0,0,1,1.83,1.38,6.34,6.34,0,0,1,1.13,2.16,9.53,9.53,0,0,1,.39,2.82,8.41,8.41,0,0,1-.09,1.35h-9.84a5.79,5.79,0,0,0,1.46,3.75,4.47,4.47,0,0,0,3.4,1.38,5.74,5.74,0,0,0,1.94-.31,8.57,8.57,0,0,0,1.69-.83l.87,1.62a12.39,12.39,0,0,1-2.13,1,7.41,7.41,0,0,1-2.67.45,7.14,7.14,0,0,1-2.75-.53,6.5,6.5,0,0,1-2.22-1.5,6.93,6.93,0,0,1-1.48-2.38A8.93,8.93,0,0,1,801.23,919.74Zm10.2-1.11a5.4,5.4,0,0,0-.95-3.43,3.2,3.2,0,0,0-2.65-1.19,3.6,3.6,0,0,0-1.48.32,4.11,4.11,0,0,0-1.27.9,4.8,4.8,0,0,0-.95,1.44,6.67,6.67,0,0,0-.5,2Z"/><path d="M816.14,930.66a5.11,5.11,0,0,0,2-1.5,3.43,3.43,0,0,0,.72-2.16,1.07,1.07,0,0,1-.3,0,1.89,1.89,0,0,1-1.25-.44,1.56,1.56,0,0,1-.52-1.27,1.6,1.6,0,0,1,.54-1.28,1.91,1.91,0,0,1,1.29-.46,1.76,1.76,0,0,1,1.51.78,3.61,3.61,0,0,1,.56,2.13,5.6,5.6,0,0,1-1,3.39,6.74,6.74,0,0,1-2.88,2.22Z"/><path d="M830.87,907.32h5.85a13,13,0,0,1,2.75.27,6.61,6.61,0,0,1,2.15.84,4,4,0,0,1,1.4,1.49,4.58,4.58,0,0,1,.5,2.21,4.49,4.49,0,0,1-.84,2.66,4.37,4.37,0,0,1-2.61,1.63v.12a6,6,0,0,1,3.36,1.5,4.28,4.28,0,0,1,1.2,3.21,5.57,5.57,0,0,1-.54,2.52,4.9,4.9,0,0,1-1.53,1.8,7,7,0,0,1-2.35,1.08,11.8,11.8,0,0,1-3,.36h-6.3Zm5.43,8.4a5.93,5.93,0,0,0,3.63-.87,3,3,0,0,0,1.11-2.52,2.5,2.5,0,0,0-1.17-2.33,6.79,6.79,0,0,0-3.45-.71h-3v6.42Zm.51,9.3a7,7,0,0,0,3.95-.94,3.32,3.32,0,0,0,1.4-3,2.94,2.94,0,0,0-1.37-2.69,7.56,7.56,0,0,0-4-.85h-3.42V925Z"/><path d="M847.49,923.22a4,4,0,0,1,2.14-3.67,17.75,17.75,0,0,1,6.83-1.79,6.73,6.73,0,0,0-.13-1.35,3.23,3.23,0,0,0-.48-1.17,2.62,2.62,0,0,0-.92-.83,3,3,0,0,0-1.47-.32,5.88,5.88,0,0,0-2.38.48,11.77,11.77,0,0,0-2,1.08l-1-1.71a16,16,0,0,1,2.49-1.28,8.33,8.33,0,0,1,3.24-.62,4.48,4.48,0,0,1,3.87,1.64,7.22,7.22,0,0,1,1.2,4.36V927h-2l-.21-1.74h-.06a12.14,12.14,0,0,1-2.26,1.49,5.62,5.62,0,0,1-2.57.62,4.46,4.46,0,0,1-3.07-1.08A3.88,3.88,0,0,1,847.49,923.22Zm2.43-.18a2.08,2.08,0,0,0,.73,1.8,3,3,0,0,0,1.82.54,4.24,4.24,0,0,0,2-.5,9.68,9.68,0,0,0,2-1.46v-4a25.62,25.62,0,0,0-3.09.57,8,8,0,0,0-2,.78,2.89,2.89,0,0,0-1.1,1A2.55,2.55,0,0,0,849.92,923Z"/><path d="M863.57,905.64H866v5.82L866,914.1a10.19,10.19,0,0,1,2.16-1.46,5.31,5.31,0,0,1,2.4-.58,5.64,5.64,0,0,1,2.49.53,5,5,0,0,1,1.81,1.5,6.89,6.89,0,0,1,1.11,2.34,11.49,11.49,0,0,1,.38,3,10.13,10.13,0,0,1-.51,3.33,7.66,7.66,0,0,1-1.38,2.49,5.84,5.84,0,0,1-2,1.54,5.68,5.68,0,0,1-2.4.53,5.39,5.39,0,0,1-2.12-.47,7.27,7.27,0,0,1-2.05-1.33h-.09l-.21,1.44h-2ZM866,923.76a6.14,6.14,0,0,0,1.91,1.19,5,5,0,0,0,1.67.34,3.49,3.49,0,0,0,1.66-.41,4,4,0,0,0,1.32-1.14,5.59,5.59,0,0,0,.87-1.82,8.71,8.71,0,0,0,.31-2.43,10.6,10.6,0,0,0-.21-2.19,4.9,4.9,0,0,0-.67-1.69,3.25,3.25,0,0,0-1.2-1.1,3.72,3.72,0,0,0-1.75-.39,6.06,6.06,0,0,0-3.9,2Z"/><path d="M879.14,919.74a8.83,8.83,0,0,1,.56-3.23,7.57,7.57,0,0,1,1.47-2.42,6.38,6.38,0,0,1,2.09-1.51,5.88,5.88,0,0,1,2.43-.53,6.12,6.12,0,0,1,2.47.48,4.83,4.83,0,0,1,1.83,1.38,6.32,6.32,0,0,1,1.13,2.16,9.53,9.53,0,0,1,.39,2.82,8.46,8.46,0,0,1-.09,1.35h-9.84A5.79,5.79,0,0,0,883,924a4.47,4.47,0,0,0,3.41,1.38,5.74,5.74,0,0,0,1.93-.31,8.54,8.54,0,0,0,1.69-.83l.87,1.62a12.4,12.4,0,0,1-2.13,1,7.4,7.4,0,0,1-2.67.45,7.14,7.14,0,0,1-2.74-.53,6.5,6.5,0,0,1-2.22-1.5,6.93,6.93,0,0,1-1.48-2.38A8.92,8.92,0,0,1,879.14,919.74Zm10.2-1.11a5.41,5.41,0,0,0-.95-3.43,3.21,3.21,0,0,0-2.66-1.19,3.6,3.6,0,0,0-1.49.32,4.12,4.12,0,0,0-1.27.9,4.81,4.81,0,0,0-.95,1.44,6.67,6.67,0,0,0-.5,2Z"/><path d="M895.1,905.64h2.46v18.6a1.29,1.29,0,0,0,.21.84.62.62,0,0,0,.48.24h.23a1.24,1.24,0,0,0,.32-.06l.33,1.86a2.16,2.16,0,0,1-.57.18,4.83,4.83,0,0,1-.84.06,2.3,2.3,0,0,1-2-.84,4.21,4.21,0,0,1-.6-2.46Z"/><path d="M901.7,930.66a5.1,5.1,0,0,0,2-1.5,3.43,3.43,0,0,0,.72-2.16,1.07,1.07,0,0,1-.3,0,1.89,1.89,0,0,1-1.25-.44,1.56,1.56,0,0,1-.53-1.27,1.6,1.6,0,0,1,.54-1.28,1.91,1.91,0,0,1,1.29-.46,1.76,1.76,0,0,1,1.52.78,3.62,3.62,0,0,1,.55,2.13,5.6,5.6,0,0,1-1,3.39,6.74,6.74,0,0,1-2.88,2.22Z"/><path d="M915.56,923.22a4,4,0,0,1,2.14-3.67,17.75,17.75,0,0,1,6.83-1.79,6.73,6.73,0,0,0-.13-1.35,3.26,3.26,0,0,0-.48-1.17,2.61,2.61,0,0,0-.92-.83,3,3,0,0,0-1.47-.32,5.88,5.88,0,0,0-2.38.48,11.78,11.78,0,0,0-2,1.08l-1-1.71a16,16,0,0,1,2.49-1.28,8.33,8.33,0,0,1,3.24-.62,4.48,4.48,0,0,1,3.87,1.64,7.22,7.22,0,0,1,1.2,4.36V927h-2l-.21-1.74h-.06a12.13,12.13,0,0,1-2.26,1.49,5.62,5.62,0,0,1-2.57.62,4.46,4.46,0,0,1-3.07-1.08A3.88,3.88,0,0,1,915.56,923.22ZM918,923a2.08,2.08,0,0,0,.73,1.8,3,3,0,0,0,1.82.54,4.24,4.24,0,0,0,2-.5,9.67,9.67,0,0,0,2-1.46v-4a25.63,25.63,0,0,0-3.09.57,8,8,0,0,0-2,.78,2.89,2.89,0,0,0-1.1,1A2.55,2.55,0,0,0,918,923Z"/><path d="M931.64,912.42h2l.21,2.1H934a11.9,11.9,0,0,1,2.21-1.75,5,5,0,0,1,2.68-.71,3.92,3.92,0,0,1,3.38,1.44,7.12,7.12,0,0,1,1.07,4.26V927h-2.46v-8.91a5.2,5.2,0,0,0-.66-3,2.41,2.41,0,0,0-2.1-.92,3.58,3.58,0,0,0-2,.57,13.09,13.09,0,0,0-2,1.68V927h-2.46Z"/><path d="M947,919.74a9.18,9.18,0,0,1,.53-3.2,7.59,7.59,0,0,1,1.39-2.42,6.19,6.19,0,0,1,2-1.53,5.55,5.55,0,0,1,2.4-.54,5,5,0,0,1,2.19.45,9.77,9.77,0,0,1,1.89,1.23l-.12-2.49v-5.61h2.49V927h-2l-.21-1.71h-.09a9.2,9.2,0,0,1-2,1.46,5,5,0,0,1-2.42.62,5.4,5.4,0,0,1-4.39-2A8.64,8.64,0,0,1,947,919.74Zm2.55,0a7,7,0,0,0,1,4.11,3.44,3.44,0,0,0,3,1.47,3.92,3.92,0,0,0,1.92-.5,6.93,6.93,0,0,0,1.8-1.51v-7.62a6.23,6.23,0,0,0-1.79-1.19,4.66,4.66,0,0,0-1.75-.34,3.44,3.44,0,0,0-1.63.41,4.14,4.14,0,0,0-1.34,1.14,5.72,5.72,0,0,0-.9,1.75A7.4,7.4,0,0,0,949.55,919.71Z"/><path d="M968.9,907.32h2.58L973.55,918l.58,3.18q.28,1.56.58,3.18h.12q.33-1.62.67-3.19t.71-3.17l2.73-10.71h2.28L984,918q.33,1.56.69,3.15t.72,3.21h.12q.3-1.62.57-3.19l.54-3.17,2.07-10.71h2.43L987,927h-3l-3-11.85q-.24-1.14-.48-2.24t-.45-2.24H980q-.24,1.14-.5,2.24t-.49,2.24L976,927h-3Z"/><path d="M993.1,919.74a8.83,8.83,0,0,1,.55-3.23,7.56,7.56,0,0,1,1.47-2.42,6.39,6.39,0,0,1,2.08-1.51,5.88,5.88,0,0,1,2.43-.53,6.12,6.12,0,0,1,2.48.48,4.84,4.84,0,0,1,1.83,1.38,6.36,6.36,0,0,1,1.13,2.16,9.53,9.53,0,0,1,.39,2.82,8.35,8.35,0,0,1-.09,1.35h-9.84A5.8,5.8,0,0,0,997,924a4.47,4.47,0,0,0,3.41,1.38,5.73,5.73,0,0,0,1.93-.31,8.58,8.58,0,0,0,1.7-.83l.87,1.62a12.39,12.39,0,0,1-2.13,1,7.4,7.4,0,0,1-2.67.45,7.14,7.14,0,0,1-2.75-.53,6.49,6.49,0,0,1-2.22-1.5,6.93,6.93,0,0,1-1.49-2.38A8.92,8.92,0,0,1,993.1,919.74Zm10.2-1.11a5.41,5.41,0,0,0-.95-3.43A3.2,3.2,0,0,0,999.7,914a3.6,3.6,0,0,0-1.48.32,4.11,4.11,0,0,0-1.28.9,4.81,4.81,0,0,0-.95,1.44,6.67,6.67,0,0,0-.49,2Z"/><path d="M1009.06,905.64h2.46v5.82l-.06,2.64a10.19,10.19,0,0,1,2.16-1.46,5.31,5.31,0,0,1,2.4-.58,5.64,5.64,0,0,1,2.49.53,5,5,0,0,1,1.81,1.5,6.87,6.87,0,0,1,1.11,2.34,11.49,11.49,0,0,1,.38,3,10.13,10.13,0,0,1-.51,3.33,7.65,7.65,0,0,1-1.38,2.49,5.84,5.84,0,0,1-2,1.54,5.68,5.68,0,0,1-2.4.53,5.39,5.39,0,0,1-2.12-.47,7.26,7.26,0,0,1-2.05-1.33h-.09L1011,927h-2Zm2.46,18.12a6.13,6.13,0,0,0,1.9,1.19,5,5,0,0,0,1.67.34,3.49,3.49,0,0,0,1.66-.41,4,4,0,0,0,1.32-1.14,5.59,5.59,0,0,0,.87-1.82,8.67,8.67,0,0,0,.32-2.43,10.53,10.53,0,0,0-.21-2.19,4.9,4.9,0,0,0-.67-1.69,3.24,3.24,0,0,0-1.2-1.1,3.71,3.71,0,0,0-1.75-.39,6.06,6.06,0,0,0-3.9,2Z"/><path d="M1028.17,928.23v4.92h-2.46V912.42h2l.21,1.68h.09a11.11,11.11,0,0,1,2.18-1.44,5.4,5.4,0,0,1,2.47-.6,5.64,5.64,0,0,1,2.49.53,4.85,4.85,0,0,1,1.8,1.5,7.05,7.05,0,0,1,1.09,2.34,11.62,11.62,0,0,1,.38,3.08,10,10,0,0,1-.51,3.32,7.68,7.68,0,0,1-1.38,2.47,5.84,5.84,0,0,1-2,1.54,5.67,5.67,0,0,1-2.4.53,4.92,4.92,0,0,1-2-.45,10.21,10.21,0,0,1-2-1.23Zm0-4.47a6.55,6.55,0,0,0,1.92,1.19,4.84,4.84,0,0,0,1.65.34,3.5,3.5,0,0,0,1.67-.41,4,4,0,0,0,1.32-1.14,5.59,5.59,0,0,0,.87-1.82,8.63,8.63,0,0,0,.32-2.43,10.6,10.6,0,0,0-.21-2.19,4.9,4.9,0,0,0-.68-1.69,3.24,3.24,0,0,0-1.2-1.1,3.72,3.72,0,0,0-1.76-.39,3.93,3.93,0,0,0-1.87.51,11,11,0,0,0-2,1.47Z"/><path d="M1041.25,923.22a4,4,0,0,1,2.14-3.67,17.75,17.75,0,0,1,6.83-1.79,6.73,6.73,0,0,0-.13-1.35,3.21,3.21,0,0,0-.48-1.17,2.62,2.62,0,0,0-.91-.83,3,3,0,0,0-1.47-.32,5.88,5.88,0,0,0-2.38.48,11.76,11.76,0,0,0-2,1.08l-1-1.71a16,16,0,0,1,2.49-1.28,8.33,8.33,0,0,1,3.24-.62,4.48,4.48,0,0,1,3.87,1.64,7.22,7.22,0,0,1,1.2,4.36V927h-2l-.21-1.74h-.06a12.14,12.14,0,0,1-2.27,1.49,5.61,5.61,0,0,1-2.56.62,4.46,4.46,0,0,1-3.08-1.08A3.88,3.88,0,0,1,1041.25,923.22Zm2.43-.18a2.08,2.08,0,0,0,.74,1.8,3,3,0,0,0,1.81.54,4.24,4.24,0,0,0,2-.5,9.69,9.69,0,0,0,2-1.46v-4a25.6,25.6,0,0,0-3.09.57,8,8,0,0,0-2,.78,2.89,2.89,0,0,0-1.09,1A2.56,2.56,0,0,0,1043.68,923Z"/><path d="M1056.25,919.74a8.71,8.71,0,0,1,.57-3.25,7.34,7.34,0,0,1,1.53-2.42,6.37,6.37,0,0,1,2.24-1.5,7.16,7.16,0,0,1,2.68-.51,5.42,5.42,0,0,1,2.48.53,7.94,7.94,0,0,1,1.79,1.21l-1.23,1.59a7,7,0,0,0-1.37-.93,3.41,3.41,0,0,0-1.57-.36,4.16,4.16,0,0,0-1.83.41,4.11,4.11,0,0,0-1.44,1.16,5.7,5.7,0,0,0-.95,1.79,7.24,7.24,0,0,0-.34,2.29,7.36,7.36,0,0,0,.33,2.28,5.53,5.53,0,0,0,.91,1.76,4.05,4.05,0,0,0,1.43,1.14,4.36,4.36,0,0,0,3.73,0,6.83,6.83,0,0,0,1.52-1l1.11,1.62a8,8,0,0,1-2.21,1.38,6.48,6.48,0,0,1-2.53.51,7.13,7.13,0,0,1-2.7-.51,6.06,6.06,0,0,1-2.17-1.48,7,7,0,0,1-1.44-2.4A9.29,9.29,0,0,1,1056.25,919.74Z"/><path d="M1071,905.64h2.43V920.1h.09l6.21-7.68h2.73l-4.89,5.85,5.55,8.73h-2.7l-4.26-7-2.73,3.18V927H1071Z"/><path d="M1093.18,909.42A1.74,1.74,0,0,1,1092,909a1.58,1.58,0,0,1,0-2.29,1.92,1.92,0,0,1,2.43,0,1.58,1.58,0,0,1,0,2.29A1.74,1.74,0,0,1,1093.18,909.42Zm-1.26,3h2.46V927h-2.46Z"/><path d="M1099.3,912.42h2l.21,2.1h.09a11.93,11.93,0,0,1,2.21-1.75,5.05,5.05,0,0,1,2.68-.71,3.92,3.92,0,0,1,3.38,1.44,7.11,7.11,0,0,1,1.07,4.26V927h-2.46v-8.91a5.21,5.21,0,0,0-.66-3,2.41,2.41,0,0,0-2.1-.92,3.58,3.58,0,0,0-2,.57,13.09,13.09,0,0,0-2,1.68V927h-2.46Z"/><path d="M1121.05,923.22a4,4,0,0,1,2.14-3.67,17.75,17.75,0,0,1,6.83-1.79,6.73,6.73,0,0,0-.13-1.35,3.21,3.21,0,0,0-.48-1.17,2.62,2.62,0,0,0-.91-.83,3,3,0,0,0-1.47-.32,5.88,5.88,0,0,0-2.38.48,11.76,11.76,0,0,0-2,1.08l-1-1.71a16,16,0,0,1,2.49-1.28,8.33,8.33,0,0,1,3.24-.62,4.48,4.48,0,0,1,3.87,1.64,7.22,7.22,0,0,1,1.2,4.36V927h-2l-.21-1.74h-.06a12.14,12.14,0,0,1-2.27,1.49,5.61,5.61,0,0,1-2.56.62,4.46,4.46,0,0,1-3.08-1.08A3.88,3.88,0,0,1,1121.05,923.22Zm2.43-.18a2.08,2.08,0,0,0,.74,1.8,3,3,0,0,0,1.81.54,4.24,4.24,0,0,0,2-.5,9.69,9.69,0,0,0,2-1.46v-4a25.6,25.6,0,0,0-3.09.57,8,8,0,0,0-2,.78,2.89,2.89,0,0,0-1.09,1A2.56,2.56,0,0,0,1123.48,923Z"/><path d="M1142.2,917.16a12.86,12.86,0,0,1,.66-4.26,9.34,9.34,0,0,1,1.84-3.21,8.07,8.07,0,0,1,2.79-2A8.59,8.59,0,0,1,1151,907a6.51,6.51,0,0,1,3.14.74,8.29,8.29,0,0,1,2.24,1.69L1155,911a6.33,6.33,0,0,0-1.74-1.34,4.72,4.72,0,0,0-2.19-.49,5.84,5.84,0,0,0-2.57.55,5.5,5.5,0,0,0-2,1.59,7.7,7.7,0,0,0-1.26,2.5,11.3,11.3,0,0,0-.45,3.3,11.9,11.9,0,0,0,.43,3.35,7.8,7.8,0,0,0,1.23,2.54,5.38,5.38,0,0,0,4.46,2.19,5.16,5.16,0,0,0,2.48-.57,7.64,7.64,0,0,0,2-1.62l1.41,1.53a8.4,8.4,0,0,1-2.61,2.1,7.3,7.3,0,0,1-3.36.75,8.46,8.46,0,0,1-3.43-.69,7.76,7.76,0,0,1-2.73-2,9.43,9.43,0,0,1-1.81-3.21A13.09,13.09,0,0,1,1142.2,917.16Z"/><path d="M1160.32,907.32h2.52V927h-2.52Z"/><path d="M1172.23,912.42h2.52l2.16,8.43q.24,1.05.45,2l.42,2h.12l.48-2q.24-1,.51-2l2.25-8.43h2.4l2.28,8.43.53,2q.25,1,.5,2h.12q.24-1,.45-2t.45-2l2.13-8.43h2.34l-3.9,14.58h-3l-2.1-7.83q-.27-1.05-.49-2.07t-.5-2.13h-.12q-.24,1.11-.48,2.15t-.54,2.08l-2,7.8h-2.88Z"/><path d="M1194.34,919.74a8.92,8.92,0,0,1,.55-3.25,7.4,7.4,0,0,1,1.49-2.42,6.22,6.22,0,0,1,2.15-1.5,6.69,6.69,0,0,1,5.13,0,6.22,6.22,0,0,1,2.15,1.5,7.42,7.42,0,0,1,1.49,2.42,8.94,8.94,0,0,1,.55,3.25,8.84,8.84,0,0,1-.55,3.22,7.25,7.25,0,0,1-1.49,2.4,6.31,6.31,0,0,1-2.15,1.48,6.69,6.69,0,0,1-5.13,0,6.31,6.31,0,0,1-2.15-1.48,7.23,7.23,0,0,1-1.49-2.4A8.82,8.82,0,0,1,1194.34,919.74Zm2.55,0a8.09,8.09,0,0,0,.3,2.28,5.42,5.42,0,0,0,.86,1.76,3.93,3.93,0,0,0,1.33,1.14,3.81,3.81,0,0,0,3.42,0,3.93,3.93,0,0,0,1.33-1.14A5.42,5.42,0,0,0,1205,922a8.09,8.09,0,0,0,.3-2.28,8.26,8.26,0,0,0-.3-2.29,5.58,5.58,0,0,0-.86-1.79,3.87,3.87,0,0,0-1.33-1.16,3.81,3.81,0,0,0-3.42,0,3.87,3.87,0,0,0-1.33,1.16,5.58,5.58,0,0,0-.86,1.79A8.26,8.26,0,0,0,1196.89,919.74Z"/><path d="M1211.68,912.42h2l.21,2.64h.09a6.75,6.75,0,0,1,1.82-2.19,3.76,3.76,0,0,1,2.33-.81,3.87,3.87,0,0,1,1.56.3l-.48,2.16a5.78,5.78,0,0,0-.66-.18,3.93,3.93,0,0,0-.75-.06,3.27,3.27,0,0,0-1.94.75,6,6,0,0,0-1.75,2.61V927h-2.46Z"/><path d="M1222.09,905.64h2.43V920.1h.09l6.21-7.68h2.73l-4.89,5.85,5.55,8.73h-2.7l-4.26-7-2.73,3.18V927h-2.43Z"/><path d="M1243.51,907.65a4,4,0,0,0-1.65-.36q-2,0-2,2.82v2.31h3.09v2h-3.09V927h-2.46V914.43h-2v-1.86l2-.15v-2.31a5.51,5.51,0,0,1,1-3.54,3.88,3.88,0,0,1,3.22-1.29,6.08,6.08,0,0,1,1.3.13,6.77,6.77,0,0,1,1.13.34Z"/><path d="M1245.7,905.64h2.46v18.6a1.28,1.28,0,0,0,.21.84.63.63,0,0,0,.48.24h.22a1.22,1.22,0,0,0,.31-.06l.33,1.86a2.16,2.16,0,0,1-.57.18,4.84,4.84,0,0,1-.84.06,2.3,2.3,0,0,1-2-.84,4.21,4.21,0,0,1-.6-2.46Z"/><path d="M1252.27,919.74a8.92,8.92,0,0,1,.55-3.25,7.41,7.41,0,0,1,1.49-2.42,6.22,6.22,0,0,1,2.15-1.5,6.7,6.7,0,0,1,5.13,0,6.22,6.22,0,0,1,2.14,1.5,7.4,7.4,0,0,1,1.49,2.42,8.92,8.92,0,0,1,.55,3.25,8.82,8.82,0,0,1-.55,3.22,7.23,7.23,0,0,1-1.49,2.4,6.31,6.31,0,0,1-2.14,1.48,6.7,6.7,0,0,1-5.13,0,6.31,6.31,0,0,1-2.15-1.48,7.23,7.23,0,0,1-1.49-2.4A8.82,8.82,0,0,1,1252.27,919.74Zm2.55,0a8.06,8.06,0,0,0,.3,2.28,5.4,5.4,0,0,0,.85,1.76,3.93,3.93,0,0,0,1.33,1.14,3.81,3.81,0,0,0,3.42,0,3.94,3.94,0,0,0,1.33-1.14,5.42,5.42,0,0,0,.86-1.76,8.09,8.09,0,0,0,.3-2.28,8.26,8.26,0,0,0-.3-2.29,5.58,5.58,0,0,0-.86-1.79,3.88,3.88,0,0,0-1.33-1.16,3.81,3.81,0,0,0-3.42,0,3.87,3.87,0,0,0-1.33,1.16,5.56,5.56,0,0,0-.85,1.79A8.22,8.22,0,0,0,1254.82,919.74Z"/><path d="M1267.78,912.42h2.52l2.16,8.43q.24,1.05.45,2t.42,2h.12l.48-2q.24-1,.51-2l2.25-8.43h2.4l2.28,8.43.53,2q.25,1,.5,2h.12q.24-1,.45-2t.45-2l2.13-8.43h2.34L1284,927h-3l-2.1-7.83q-.27-1.05-.5-2.07t-.5-2.13h-.12q-.24,1.11-.48,2.15t-.54,2.08l-2,7.8h-2.88Z"/><path d="M1288.81,930.66a5.1,5.1,0,0,0,2-1.5,3.43,3.43,0,0,0,.72-2.16,1.08,1.08,0,0,1-.3,0,1.89,1.89,0,0,1-1.24-.44,1.56,1.56,0,0,1-.53-1.27A1.59,1.59,0,0,1,1290,924a1.91,1.91,0,0,1,1.29-.46,1.76,1.76,0,0,1,1.51.78,3.61,3.61,0,0,1,.56,2.13,5.6,5.6,0,0,1-1.05,3.39,6.74,6.74,0,0,1-2.88,2.22Z"/><path d="M1304.65,909.42a1.74,1.74,0,0,1-1.21-.45,1.58,1.58,0,0,1,0-2.29,1.92,1.92,0,0,1,2.43,0,1.58,1.58,0,0,1,0,2.29A1.74,1.74,0,0,1,1304.65,909.42Zm-1.26,3h2.46V927h-2.46Z"/><path d="M1310.77,912.42h2l.21,2.1h.09a11.93,11.93,0,0,1,2.21-1.75,5.05,5.05,0,0,1,2.69-.71,3.92,3.92,0,0,1,3.38,1.44,7.12,7.12,0,0,1,1.06,4.26V927H1320v-8.91a5.21,5.21,0,0,0-.66-3,2.41,2.41,0,0,0-2.1-.92,3.58,3.58,0,0,0-2,.57,13,13,0,0,0-2,1.68V927h-2.46Z"/><path d="M1332.85,923.7a9.78,9.78,0,0,0,2,1.26,5.33,5.33,0,0,0,2.33.48,3.1,3.1,0,0,0,2.16-.66,2.11,2.11,0,0,0,.72-1.62,1.67,1.67,0,0,0-.3-1,3,3,0,0,0-.77-.74,5.64,5.64,0,0,0-1.06-.55l-1.2-.48q-.78-.27-1.56-.62a6.2,6.2,0,0,1-1.39-.84,4.24,4.24,0,0,1-1-1.16,3.06,3.06,0,0,1-.39-1.59,3.92,3.92,0,0,1,.35-1.63,3.76,3.76,0,0,1,1-1.32,4.69,4.69,0,0,1,1.58-.87,7,7,0,0,1,4.64.17,7.89,7.89,0,0,1,2,1.17l-1.17,1.56a7.9,7.9,0,0,0-1.56-.93,4.31,4.31,0,0,0-1.77-.36,2.81,2.81,0,0,0-2,.63,2,2,0,0,0-.65,1.47,1.41,1.41,0,0,0,.27.87,2.89,2.89,0,0,0,.72.66,5.23,5.23,0,0,0,1,.52l1.21.46,1.58.63a6,6,0,0,1,1.42.82,4.07,4.07,0,0,1,1,1.21,3.51,3.51,0,0,1,.41,1.74,4.1,4.1,0,0,1-.35,1.68,4,4,0,0,1-1,1.38,4.87,4.87,0,0,1-1.68.94,7,7,0,0,1-2.3.35,7.85,7.85,0,0,1-3-.57,9.23,9.23,0,0,1-2.46-1.44Z"/><path d="M1344.73,919.74a8.83,8.83,0,0,1,.55-3.23,7.56,7.56,0,0,1,1.47-2.42,6.39,6.39,0,0,1,2.08-1.51,5.88,5.88,0,0,1,2.43-.53,6.11,6.11,0,0,1,2.47.48,4.83,4.83,0,0,1,1.83,1.38,6.32,6.32,0,0,1,1.13,2.16,9.53,9.53,0,0,1,.39,2.82,8.48,8.48,0,0,1-.09,1.35h-9.84a5.8,5.8,0,0,0,1.46,3.75,4.47,4.47,0,0,0,3.41,1.38,5.74,5.74,0,0,0,1.94-.31,8.6,8.6,0,0,0,1.69-.83l.87,1.62a12.39,12.39,0,0,1-2.13,1,7.4,7.4,0,0,1-2.67.45,7.14,7.14,0,0,1-2.75-.53,6.49,6.49,0,0,1-2.22-1.5,6.94,6.94,0,0,1-1.49-2.38A8.92,8.92,0,0,1,1344.73,919.74Zm10.2-1.11a5.41,5.41,0,0,0-.95-3.43,3.2,3.2,0,0,0-2.65-1.19,3.6,3.6,0,0,0-1.49.32,4.11,4.11,0,0,0-1.28.9,4.79,4.79,0,0,0-.94,1.44,6.61,6.61,0,0,0-.5,2Z"/><path d="M1359.61,919.74a8.71,8.71,0,0,1,.57-3.25,7.32,7.32,0,0,1,1.53-2.42,6.37,6.37,0,0,1,2.23-1.5,7.17,7.17,0,0,1,2.69-.51,5.42,5.42,0,0,1,2.47.53,7.9,7.9,0,0,1,1.79,1.21l-1.23,1.59a6.92,6.92,0,0,0-1.36-.93,3.41,3.41,0,0,0-1.58-.36,4.1,4.1,0,0,0-3.27,1.56,5.7,5.7,0,0,0-.94,1.79,7.21,7.21,0,0,0-.35,2.29,7.39,7.39,0,0,0,.33,2.28,5.51,5.51,0,0,0,.92,1.76,4.06,4.06,0,0,0,1.42,1.14,4.36,4.36,0,0,0,3.74,0,6.8,6.8,0,0,0,1.51-1l1.11,1.62a8,8,0,0,1-2.21,1.38,6.49,6.49,0,0,1-2.54.51,7.14,7.14,0,0,1-2.7-.51,6.06,6.06,0,0,1-2.17-1.48,7,7,0,0,1-1.44-2.4A9.26,9.26,0,0,1,1359.61,919.74Z"/><path d="M1372.66,919.74a8.92,8.92,0,0,1,.55-3.25,7.41,7.41,0,0,1,1.49-2.42,6.22,6.22,0,0,1,2.15-1.5,6.7,6.7,0,0,1,5.13,0,6.22,6.22,0,0,1,2.14,1.5,7.41,7.41,0,0,1,1.49,2.42,8.92,8.92,0,0,1,.55,3.25,8.82,8.82,0,0,1-.55,3.22,7.23,7.23,0,0,1-1.49,2.4,6.31,6.31,0,0,1-2.14,1.48,6.7,6.7,0,0,1-5.13,0,6.31,6.31,0,0,1-2.15-1.48,7.23,7.23,0,0,1-1.49-2.4A8.82,8.82,0,0,1,1372.66,919.74Zm2.55,0a8.06,8.06,0,0,0,.3,2.28,5.4,5.4,0,0,0,.85,1.76,3.93,3.93,0,0,0,1.33,1.14,3.81,3.81,0,0,0,3.42,0,3.94,3.94,0,0,0,1.33-1.14,5.42,5.42,0,0,0,.86-1.76,8.09,8.09,0,0,0,.3-2.28,8.26,8.26,0,0,0-.3-2.29,5.58,5.58,0,0,0-.86-1.79,3.88,3.88,0,0,0-1.33-1.16,3.81,3.81,0,0,0-3.42,0,3.87,3.87,0,0,0-1.33,1.16,5.56,5.56,0,0,0-.85,1.79A8.22,8.22,0,0,0,1375.21,919.74Z"/><path d="M1390,912.42h2l.21,2.1h.09a11.93,11.93,0,0,1,2.21-1.75,5.05,5.05,0,0,1,2.69-.71,3.92,3.92,0,0,1,3.38,1.44,7.12,7.12,0,0,1,1.06,4.26V927h-2.46v-8.91a5.21,5.21,0,0,0-.66-3,2.41,2.41,0,0,0-2.1-.92,3.58,3.58,0,0,0-2,.57,13,13,0,0,0-2,1.68V927H1390Z"/><path d="M1405.36,919.74a9.2,9.2,0,0,1,.52-3.2,7.61,7.61,0,0,1,1.4-2.42,6.19,6.19,0,0,1,2-1.53,5.55,5.55,0,0,1,2.4-.54,5,5,0,0,1,2.19.45,9.77,9.77,0,0,1,1.89,1.23l-.12-2.49v-5.61h2.49V927h-2l-.21-1.71h-.09a9.2,9.2,0,0,1-2,1.46,5,5,0,0,1-2.42.62,5.4,5.4,0,0,1-4.4-2A8.64,8.64,0,0,1,1405.36,919.74Zm2.55,0a7,7,0,0,0,1,4.11,3.44,3.44,0,0,0,3,1.47,3.92,3.92,0,0,0,1.92-.5,6.93,6.93,0,0,0,1.8-1.51v-7.62a6.22,6.22,0,0,0-1.79-1.19,4.66,4.66,0,0,0-1.75-.34,3.44,3.44,0,0,0-1.63.41,4.11,4.11,0,0,0-1.33,1.14,5.68,5.68,0,0,0-.9,1.75A7.37,7.37,0,0,0,1407.91,919.71Z"/><path d="M1422.67,923.7a9.78,9.78,0,0,0,2,1.26,5.33,5.33,0,0,0,2.33.48,3.1,3.1,0,0,0,2.16-.66,2.11,2.11,0,0,0,.72-1.62,1.67,1.67,0,0,0-.3-1,3,3,0,0,0-.77-.74,5.64,5.64,0,0,0-1.06-.55l-1.2-.48q-.78-.27-1.56-.62a6.2,6.2,0,0,1-1.39-.84,4.24,4.24,0,0,1-1-1.16,3.06,3.06,0,0,1-.39-1.59,3.92,3.92,0,0,1,.35-1.63,3.76,3.76,0,0,1,1-1.32,4.69,4.69,0,0,1,1.58-.87,7,7,0,0,1,4.64.17,7.89,7.89,0,0,1,2,1.17l-1.17,1.56a7.9,7.9,0,0,0-1.56-.93,4.31,4.31,0,0,0-1.77-.36,2.81,2.81,0,0,0-2,.63,2,2,0,0,0-.65,1.47,1.41,1.41,0,0,0,.27.87,2.89,2.89,0,0,0,.72.66,5.23,5.23,0,0,0,1,.52l1.21.46,1.58.63a6,6,0,0,1,1.42.82,4.07,4.07,0,0,1,1,1.21,3.51,3.51,0,0,1,.41,1.74,4.1,4.1,0,0,1-.35,1.68,4,4,0,0,1-1,1.38,4.87,4.87,0,0,1-1.68.94,7,7,0,0,1-2.3.35,7.85,7.85,0,0,1-3-.57,9.23,9.23,0,0,1-2.46-1.44Z"/></svg>